<svg width="152" height="159" viewBox="0 0 152 159" fill="none" xmlns="http://www.w3.org/2000/svg">
<g clip-path="url(#clip0_1_2)">
<path d="M76 158.609C117.759 158.609 151.612 124.482 151.612 82.3848C151.612 40.2873 117.759 6.16049 76 6.16049C34.2405 6.16049 0.387756 40.2873 0.387756 82.3848C0.387756 124.482 34.2405 158.609 76 158.609Z" fill="#2B3990" stroke="#231F20" stroke-miterlimit="10"/>
<path d="M125.803 134.295C125.664 134.686 125.4 134.757 125.02 134.788C112.806 134.811 86.9425 134.811 64.7784 134.804C46.771 134.804 31.1988 134.804 27.391 134.804C25.5065 134.921 26.1735 133.224 26.0106 130.949C26.0106 125.023 26.0029 110.983 26.0106 106.37C26.0339 103.532 26.251 103.767 27.9029 103.743C28.3449 103.743 28.7559 103.743 29.229 103.743C45.2588 104.118 118.312 103.016 125.741 104.15C125.958 104.572 125.974 105.534 125.982 107.332C125.982 111.483 125.982 120.161 125.982 126.407C125.958 128.526 126.082 133.623 125.811 134.256L125.796 134.295H125.803Z" fill="#7FD3F7" stroke="#231F20" stroke-width="0.5" stroke-miterlimit="10"/>
<path d="M26.0106 103.743C28.8412 100.538 32.8351 96.0661 35.4641 93.1187C36.5498 92.0242 37.302 90.8594 38.5584 90.8985C46.7012 91.0548 106.54 90.5545 114.333 91.0783C114.861 91.219 116.032 92.5715 116.823 93.4315C119.591 96.5664 123.26 100.647 125.989 103.743" fill="#4B96D1"/>
<path d="M26.0106 103.743C28.8412 100.538 32.8351 96.0661 35.4641 93.1187C36.5498 92.0242 37.302 90.8594 38.5584 90.8985C46.7012 91.0548 106.54 90.5545 114.333 91.0783C114.861 91.219 116.032 92.5715 116.823 93.4315C119.591 96.5664 123.26 100.647 125.989 103.743" stroke="#231F20" stroke-width="0.5" stroke-miterlimit="10"/>
<path d="M116.831 54.5375C99.5135 47.9001 66.0735 49.4403 50.2065 52.0123C47.1898 52.6143 36.798 54.4437 39.7992 58.2745C40.8151 59.369 43.2192 60.3931 46.8486 61.3078C65.2282 65.5295 92.4641 65.7718 110.991 61.8394C114.744 61.042 124.074 58.2901 116.9 54.5766L116.831 54.5375Z" fill="#DEE6F5" stroke="#231F20" stroke-width="0.5" stroke-miterlimit="10"/>
<path d="M91.5102 50.3002C90.2771 45.4297 89.0286 39.9806 85.0037 36.6815C81.3665 33.7967 75.651 34.1563 71.6184 37.088C67.5159 40.0979 65.1506 44.6792 62.7931 49.3621L61.3661 50.6599" fill="#DEE6F5"/>
<path d="M91.5102 50.3002C90.2771 45.4297 89.0286 39.9806 85.0037 36.6815C81.3665 33.7967 75.651 34.1563 71.6184 37.088C67.5159 40.0979 65.1506 44.6792 62.7931 49.3621L61.3661 50.6599" stroke="#231F20" stroke-width="0.5" stroke-miterlimit="10"/>
<path opacity="0.7" d="M36.3869 62.5117C38.2637 60.7215 40.9625 60.1351 43.4053 60.9794C48.8572 62.8714 58.3339 64.8884 60.0245 64.6304C68.8265 63.3014 56.8992 80.4303 51.8118 86.9035C50.5012 88.5766 48.5004 89.546 46.3833 89.546H38.7988C36.8523 89.546 35.2004 91.9695 33.882 93.4158L26.949 101.374C24.6147 103.947 20.8845 102.117 18.0384 100.147C13.5327 97.0355 7.63103 92.7435 7.63103 91.6021C7.63103 90.1089 28.3992 70.1342 36.3792 62.5117H36.3869Z" fill="#FFF200"/>
<path d="M65.9649 123.593H84.3755V134.772H65.9649V123.593Z" fill="#231F20" stroke="#231F20" stroke-width="0.5" stroke-miterlimit="10"/>
<path d="M59.8461 110.428H54.1927C53.3489 110.428 52.6649 111.117 52.6649 111.968V117.667C52.6649 118.517 53.3489 119.207 54.1927 119.207H59.8461C60.6899 119.207 61.3739 118.517 61.3739 117.667V111.968C61.3739 111.117 60.6899 110.428 59.8461 110.428Z" fill="#DEE6F5" stroke="#231F20" stroke-width="0.5" stroke-miterlimit="10"/>
<path d="M38.1241 110.428H43.7776C44.6229 110.428 45.3053 111.115 45.3053 111.968V117.667C45.3053 118.519 44.6229 119.207 43.7776 119.207H37.938C37.1935 119.207 36.5963 118.597 36.5963 117.855V111.968C36.5963 111.115 37.2788 110.428 38.1241 110.428Z" fill="#DEE6F5" stroke="#231F20" stroke-width="0.5" stroke-miterlimit="10"/>
<path d="M98.8543 110.428H92.8751C92.1213 110.428 91.5102 111.044 91.5102 111.803V117.831C91.5102 118.591 92.1213 119.207 92.8751 119.207H98.8543C99.6081 119.207 100.219 118.591 100.219 117.831V111.803C100.219 111.044 99.6081 110.428 98.8543 110.428Z" fill="#DEE6F5" stroke="#231F20" stroke-width="0.5" stroke-miterlimit="10"/>
<path d="M113.364 110.428H107.664C106.833 110.428 106.16 111.107 106.16 111.944V117.69C106.16 118.528 106.833 119.207 107.664 119.207H113.364C114.195 119.207 114.869 118.528 114.869 117.69V111.944C114.869 111.107 114.195 110.428 113.364 110.428Z" fill="#DEE6F5" stroke="#231F20" stroke-width="0.5" stroke-miterlimit="10"/>
<path opacity="0.7" d="M68.5474 66.0532C67.0351 66.0532 65.6702 66.9836 65.1118 68.4064C63.08 73.5897 58.2253 85.6527 56.5192 87.2162C54.34 89.2098 79.2882 89.4131 79.2882 89.4131H91.9135C94.3408 89.4131 96.1012 87.099 95.4808 84.738L91.3008 68.8286C90.8743 67.1947 89.4086 66.0611 87.7335 66.0611H68.5396L68.5474 66.0532Z" fill="#FFF200"/>
<path opacity="0.7" d="M93.9918 69.884L98.0865 86.2312C98.4122 87.5211 99.56 88.4202 100.878 88.4202H113.519C114.372 88.4202 115.187 88.8033 115.737 89.4678L126.633 102.68C127.672 103.939 129.541 104.087 130.759 102.993L142.26 92.7044C143.431 91.6568 143.555 89.8509 142.539 88.6469L119.987 61.9567C119.273 61.1124 118.157 60.7527 117.094 61.0264L96.0857 66.3425C94.5424 66.7334 93.6041 68.3126 93.9918 69.8684V69.884Z" fill="#FFF200"/>
<path opacity="0.7" d="M73.3943 47.1105H79.8465C81.5294 47.1105 82.9331 45.7971 83.0339 44.1085C83.1114 42.7872 82.8167 41.5286 81.4131 41.5286C78.4429 41.5286 73.689 40.5279 72.7041 44.3195L72.2543 45.2342C71.8277 46.102 72.4482 47.1183 73.4098 47.1183L73.3943 47.1105Z" fill="#FFF200" stroke="#231F20" stroke-width="0.5" stroke-miterlimit="10"/>
</g>
<defs>
<clipPath id="clip0_1_2">
<rect width="152" height="159" fill="white"/>
</clipPath>
</defs>
</svg>
