
<svg id="Layer_1" data-name="Layer 1" xmlns="http://www.w3.org/2000/svg" viewBox="0 0 101.92 243.23">
  <defs>
    <style>
      .cls-1 {
        fill: #61923f;
      }

      .cls-2 {
        fill: #7fd3f7;
      }

      .cls-3 {
        fill: #4b96d1;
      }

      .cls-4 {
        fill: #231f20;
      }

      .cls-5 {
        stroke: #fff;
        stroke-miterlimit: 10;
      }

      .cls-5, .cls-6 {
        fill: #fff;
      }

      .cls-7 {
        fill: #dee6f5;
      }

      .cls-8 {
        fill: #f8d8c0;
      }
    </style>
  </defs>
  <g>
    <path class="cls-4" d="M94.56,168.62c-.07-1.41-.69-2.57-1.5-3.68-.82-1.13-1.13-2.63-.81-3.99-.01,1.38.31,2.67,1.12,3.79.37.56.78,1.15,1,1.82.24.67.28,1.38.19,2.06Z"/>
    <path class="cls-4" d="M89.96,131.18c-.1.22-.22.42-.38.61-1.48,1.36-2.89-.88-3.55-2.18.01-.03.03-.05.04-.07,1.07,1.15,2.39,3.54,3.9,1.64Z"/>
    <path class="cls-4" d="M89.17,144.01l.11.13s-.07-.03-.1-.05c0-.03,0-.06-.01-.08Z"/>
    <path class="cls-4" d="M89.52,162.88c-.87-.65-1.62.42-2.24,1.01-.04,0-.08,0-.12.01.26-.95,1.68-2.28,2.35-1.03Z"/>
    <path class="cls-4" d="M87.17,163.91s.08-.01.12-.01c-.05.05-.1.09-.14.13,0-.04.01-.08.03-.12Z"/>
    <path class="cls-4" d="M89.18,144.09c-1.94-1.09-2.73-7.84-2.93-9.96.65,2.91,1.1,6.12,2.36,8.83.22.41.47.8.87.92.1,1.16.16,2.32.06,3.48-.03.37-.09.75-.21,1.11.08-.37.09-.74.09-1.11,0-1.09-.1-2.18-.24-3.26.03.02.07.04.1.05l-.11-.13s0,.06.01.08Z"/>
    <path class="cls-4" d="M86.07,129.54s-.03.05-.04.07c-.04-.09-.08-.16-.12-.24.05.05.1.1.16.16Z"/>
    <path class="cls-4" d="M85.12,45.43c-.15-.31-.31-.62-.46-.93-.01-.05-.03-.09-.04-.14-.02-.33-.04-.66-.04-1.01.19.69.37,1.39.54,2.08Z"/>
    <path class="cls-4" d="M84.84,38.08c0,.41.02.81.06,1.23-.03-.05-.06-.1-.08-.16-.06-.37-.04-.73.02-1.07Z"/>
    <path class="cls-4" d="M84.82,39.15c-1.2-2.37-.42-5.57.85-7.77-.27,2.28-.83,4.44-.83,6.7h0c-.06.34-.08.7-.02,1.07Z"/>
    <path class="cls-4" d="M84.66,44.5s-.02-.04-.03-.07c0-.02,0-.04,0-.07.01.04.03.09.04.14Z"/>
    <path class="cls-4" d="M84.66,44.5c.29,1.08.35,2.24.38,3.35,0,.13-.07.4-.18.12.03.05.1.12.09.06-.03-.27-.1-.54-.18-.8,0-.72-.04-1.41-.1-2.11-.01-.22-.03-.45-.04-.68.01.03.02.05.03.07Z"/>
    <path class="cls-4" d="M86.03,231.1c-.55-.95-1.29-1.4-2.36-1.55-.99-.2-2-.39-2.97-.73,1.03.06,2.03.18,3.04.37,1.13.18,2,.76,2.29,1.91Z"/>
    <path class="cls-4" d="M83.7,42.44c.14.18.26.37.38.57.24.43.41.88.54,1.35,0,.02,0,.04,0,.07-.32-.66-.63-1.32-.93-1.99Z"/>
    <path class="cls-4" d="M83.51,39.86l.02.07v.03l-.02-.1Z"/>
    <path class="cls-1" d="M82.45,97.24c.14-2.4-1.61-4.63-3.71-5.61l.02-1.06c.39.08.77.15,1.15.21.28.08,3.05.96,3.39,3.99.11.96.1,1.78.05,2.52l-.9-.05Z"/>
    <path class="cls-4" d="M82.68,40.01c-.23-1.48-.45-3.04-.51-4.54-.19-5.77,3.46-2.77.94-13.25,1.09,2.25,1.93,4.77,1.75,7.32-.09,1.33-1.04,2.65-1.42,3.8-.44,1.99.01,4.53.09,6.59l-.02-.07.02.1v-.03c.36,1.14.71,2.28,1.04,3.42,0,.35.02.68.04,1.01-.13-.47-.31-.92-.54-1.35-.12-.2-.24-.38-.38-.57-.26-.58-.51-1.17-.76-1.76.19.12.38.25.57.39-.19-.43-.48-.78-.82-1.07Z"/>
    <path class="cls-4" d="M83.51,41.08c-.18-.15-.37-.28-.57-.39-.08-.21-.17-.42-.25-.63,0-.01,0-.03,0-.04.35.28.63.64.82,1.07Z"/>
    <path class="cls-4" d="M82.76,46.8c.23.79.11,1.65-.29,2.37-.17-.64-.2-1.28-.36-1.91-.06-.27-.14-.52-.26-.75-.11-.37-.28-.72-.51-1.06,0,0,0,0,0,0,.67.09,1.28.72,1.42,1.36Z"/>
    <path class="cls-4" d="M78.74,91.63c2.1.98,3.85,3.21,3.71,5.61-.09-.42-.19-.85-.34-1.26-.64-1.77-1.93-3.19-3.37-4.35Z"/>
    <path class="cls-4" d="M84.02,44.64c-.8-2.5-3.14-4.03-5.44-5.11l.78.1c1.69.44,3.3,1.4,4.33,2.81.3.67.61,1.33.93,1.99.01.23.03.46.04.68.05.7.1,1.4.1,2.11-.04-.15-.09-.3-.13-.45-.15-.49-.45-1.67-.61-2.13Z"/>
    <path class="cls-4" d="M83.7,42.44c-1.04-1.42-2.64-2.38-4.33-2.81,1.26.18,2.49.41,3.58,1.05.24.59.5,1.18.76,1.76Z"/>
    <path class="cls-4" d="M83.46,49.71c-.74,3.11-2.75,7.28-5.74,8.73,2.5-2.51,3.87-5.74,5.74-8.73Z"/>
    <path class="cls-4" d="M81.34,45.44c.23.34.4.69.51,1.06-.2-.41-.51-.75-1.05-1.01.18-.06.35-.08.53-.06,0,0,0,0,0,0Z"/>
    <path class="cls-4" d="M80.59,15.97c-.67.29-.91-.74-.42-1.08.13.47.01.79.42,1.08Z"/>
    <path class="cls-4" d="M84.11,17.28c-5.13-7.39-15.53-12.87-23.68-12.47l-.04-.74c8.38-.41,19.06,5.2,24.33,12.78,2.82,4.06,5.47,10.56,2.08,18.42h-.03c-.09.25-.31.72-.74,1.66-.02.04-.8,1.42-.37,2.5.51,1.27-.19,3.11-.35,3.51,0,.73.06,1.44.1,2.12.23,3.19.45,6.2-3.99,11.73-.09.11-.21.25-.35.41l-.03-.03c-.63.39-1.24.81-1.84,1.25.69-.98,1.31-1.73,1.65-2.12,3.27-4.07,3.9-6.7,3.92-9.09.07.26.15.53.18.8.02.06-.06-.01-.09-.06.1.28.18.01.18-.12-.03-1.11-.09-2.26-.38-3.35.15.31.31.63.46.93-.17-.7-.35-1.39-.54-2.08,0-.16-.01-.32-.01-.49v-.08l.03-.07c.23-.53.74-2.09.37-3.01-.07-.18-.12-.37-.15-.55.03.05.05.1.08.16-.04-.41-.06-.82-.06-1.23h0c.14-.82.51-1.45.53-1.5,0,0,.7-1.53.74-1.61,3.25-7.55.7-13.79-2.01-17.7Z"/>
    <path class="cls-4" d="M79.14,19.32c.13-.04.26-.09.41-.12-1.06,1.12-2.6.61-2.34-1.01.36,1.1.77,1.5,1.94,1.13Z"/>
    <path class="cls-4" d="M75.13,226.29c.25-2.04,2.86-2.56,4.56-2.32-.39.09-.95.17-1.34.26-1.26.28-2.7.76-3.22,2.06Z"/>
    <path class="cls-4" d="M78.39,39.44c.32.04.65.11.97.19l-.78-.1c-.06-.03-.13-.06-.19-.09Z"/>
    <path class="cls-4" d="M81.04,57.17c-.96,1.14-1.99,2.22-3.1,3.21.42-.72.85-1.37,1.26-1.96.6-.44,1.21-.86,1.84-1.25Z"/>
    <path class="cls-4" d="M78.77,190.83c-.47-1.25-.43-2.6-.42-3.91.04-1.74.2-3.46.46-5.17-.14,2.57-.32,5.18-.02,7.74.08.51.17,1.03.45,1.46.24.23.44.57.52.87.44,1.72.37,3.46.33,5.21-.07,1.73-.22,3.45-.45,5.17.04-.86.09-1.73.11-2.59.06-1.72.09-3.45.02-5.17-.09-1.02-.08-2.15-.6-3.04-.12-.13-.33-.38-.39-.57Z"/>
    <path class="cls-4" d="M76.84,39.25c1.69-.51,4.35-.48,5.84.76,0,.01,0,.03,0,.04.08.21.17.42.25.63-1.08-.65-2.32-.88-3.58-1.05-.32-.09-.65-.15-.97-.19.06.03.13.06.19.09-.58-.08-1.17-.16-1.74-.28Z"/>
    <path class="cls-4" d="M75.82,172.33c.92-.37,2.4-.12,2.66.98-.69-.73-1.73-.8-2.66-.98Z"/>
    <path class="cls-4" d="M73.67,63.6c1.62-1.94,3.49-3.68,5.53-5.18-.41.58-.84,1.24-1.26,1.96-.47.42-.95.83-1.44,1.22.13-.41.24-.82.34-1.21-.33.56-.64,1.12-.95,1.68-.72.54-1.46,1.05-2.23,1.53Z"/>
    <path class="cls-4" d="M77.72,177.57s0,0-.02.01c0,0-.01,0-.02,0h0s.02-.05.04-.01Z"/>
    <path class="cls-4" d="M77.85,215.27c-1.28.24-1.27.88-.44,1.7-.79-.38-1.3-1.27-.34-1.81.79-.45,1.6-.34,2.03.51.25.39.39.88.88,1.01-.25.03-.49-.12-.67-.29-.44-.43-.77-1.28-1.46-1.12Z"/>
    <path class="cls-4" d="M78.08,97.36c-.41,1.3-.71,2.56-.41,3.9-.82-1.17-.48-2.87.41-3.9Z"/>
    <path class="cls-4" d="M77.46,153.67c-.84-2.67-1.27-5.42-1.64-8.19.57,2.38,1.24,5.78,1.99,8.07.13.35.24.72.48.94.27.23.35.59.45.91.17.69.26,1.39.33,2.08.13,1.39.18,2.78.15,4.17-.07-.69-.12-1.39-.2-2.07-.14-1.37-.28-2.76-.62-4.09-.07-.23-.13-.47-.27-.65-.39-.35-.5-.74-.66-1.17Z"/>
    <path class="cls-4" d="M76.84,60.39c-.1.39-.21.8-.34,1.21-.2.16-.4.31-.61.47.31-.56.62-1.12.95-1.68Z"/>
    <path class="cls-4" d="M76.5,61.6c-.83,2.7-2.24,5.69-4.19,7.72-.1.09-.2.18-.31.26-.25.22-.51.45-.75.67,1.83-2.59,3.13-5.42,4.63-8.19.2-.15.41-.31.61-.47Z"/>
    <path class="cls-4" d="M78.53,43.34c-4.44-1.18-8.9.71-11.96,3.99,3.73-5.73,10.88-6.65,16.14-2.38-1.35-.69-2.74-1.26-4.18-1.61Z"/>
    <path class="cls-6" d="M75.58,46.66s.07.06.07.15h0c0,.11-.04.15-.07.17-.08.04-.19.04-.27,0-.04-.02-.07-.06-.07-.17,0-.1.04-.13.07-.15s.09-.03.13-.03.1.01.14.03Z"/>
    <path class="cls-4" d="M77.77,177.64c-1.14,2.15-2.53.25-2.87-1.25.45.53,1.35,2.38,2.15,1.73.15-.12.5-.4.63-.53,0,0,.01,0,.02,0,.01-.01.06,0,.02-.01-.01-.04-.02,0-.04.01h0s-.08.03-.12.04c.06-.04.14-.16.22-.1.03.06,0,.08-.01.11Z"/>
    <path class="cls-4" d="M75.66,46.82h0c0-.11-.04-.14-.07-.16-.04-.02-.09-.03-.14-.03s-.1.01-.13.03-.07.06-.07.15c0,.11.04.15.07.17.08.04.19.04.27,0,.04-.02.07-.06.07-.16ZM74.49,46.81c0-.34.16-.63.44-.8.31-.18.71-.18,1.02,0,.29.17.45.46.45.8s-.16.64-.45.8c-.15.09-.33.14-.51.14s-.35-.04-.51-.14c-.29-.17-.45-.46-.44-.81Z"/>
    <path class="cls-1" d="M72.31,69.33c1.95-2.03,3.36-5.02,4.19-7.72.49-.39.97-.8,1.44-1.22-.8,1.39-1.54,2.99-1.87,4.6v.05c-.09,1.25-1.21,2.18-2.76,3.46-.32.27-.65.54-.99.84Z"/>
    <path class="cls-4" d="M75.6,14.04c-1.29.07-2.73.07-3.87-.65-.92-.66-.24-1.63.54-2.02-1.82,1.72.35,2.1,1.8,2.38.5.09,1.02.18,1.53.28Z"/>
    <path class="cls-6" d="M73.56,47.81c.29.19.45.49.44.84-.03.6-.55,1.22-1.41,1.65-.84.45-1.65.53-2.15.2-.29-.19-.46-.5-.44-.85.03-.6.55-1.22,1.4-1.65h0c.5-.27.98-.4,1.4-.4.29,0,.55.06.76.2Z"/>
    <path class="cls-4" d="M72.01,69.59c.1-.09.2-.18.31-.26-.35.36-.71.69-1.09.99.01-.01.02-.03.03-.05.24-.22.5-.45.75-.67Z"/>
    <path class="cls-4" d="M72,23.96c-.21.82-1.4.92-1.52,0,.61.47.93.28,1.52,0Z"/>
    <path class="cls-4" d="M69.04,18.19c1.21,1.63,2.51,2.42,3.74.27.29-.49.55-1.01.81-1.54-.12.58-.29,1.15-.56,1.68-1.11,2.41-3.11,1.75-3.99-.41Z"/>
    <path class="cls-4" d="M74.94,46.01c-.29.17-.45.46-.44.8,0,.35.16.64.44.81.16.09.34.14.51.14s.36-.04.51-.14c.29-.16.45-.46.45-.8s-.16-.64-.45-.8c-.31-.18-.71-.18-1.02,0ZM71.06,47.36c-1.11.57-1.76,1.39-1.8,2.28-.03.61.26,1.18.79,1.51.33.21.73.31,1.15.31.54,0,1.14-.16,1.74-.49,1.11-.56,1.77-1.39,1.81-2.28.03-.62-.27-1.18-.79-1.51-.75-.47-1.81-.41-2.9.17ZM64.91,56.96c-1.84-2.7,1.14-6.89,5.05-9.63,3.73-2.61,8.41-3.99,10.49-1.81.1.1.2.22.29.35,1.85,2.7-1.14,6.89-5.05,9.63s-8.86,4.12-10.78,1.46Z"/>
    <path class="cls-4" d="M71.4,48.02c-.85.43-1.37,1.05-1.4,1.65-.02.35.15.66.44.85.51.32,1.31.24,2.15-.2.86-.44,1.38-1.05,1.41-1.65.01-.35-.15-.66-.44-.84-.21-.13-.47-.2-.76-.2-.42,0-.9.13-1.4.4h0ZM70.04,51.14c-.52-.33-.82-.89-.79-1.51.04-.89.7-1.71,1.8-2.28,1.1-.58,2.15-.64,2.9-.17.52.33.81.89.79,1.51-.04.88-.7,1.71-1.81,2.28-.61.32-1.2.49-1.74.49-.43,0-.82-.1-1.15-.31Z"/>
    <path class="cls-4" d="M68.58,92.09c-1.33.05-2.64-1.06-2.59-2.44.42,1.17,1.41,2,2.61,2.25.17.04.35.07.53.12-.18.03-.36.05-.55.06Z"/>
    <path class="cls-4" d="M69.04,13.75c0,.37-.09.72-.42.95-.43.27-.82-.26-.76-.66.17.15.3.33.48.37.03,0,.05,0,.09-.03.21-.14.38-.44.61-.63Z"/>
    <path class="cls-4" d="M68.13,59.15c-.09,0-.18,0-.26,0-.27-.12-.53-.26-.77-.43,1.02.06,2.03.11,3.04.2-.69.16-1.36.24-2,.24Z"/>
    <path class="cls-4" d="M72.82,59.31c-1.58.51-3.43.52-4.96-.17.09,0,.18,0,.26,0,.64,0,1.31-.09,2-.24.9.08,1.79.2,2.69.41Z"/>
    <path class="cls-4" d="M67.09,75.23c.12-.32.25-.62.38-.89l.24.21s-.26.3-.62.67Z"/>
    <path class="cls-4" d="M66.54,8.8c.08-.26.28-.31.42-.37.15-.04.31-.07.47-.06-.18.11-.57.28-.6.47,0,.03.09.13.2.19.63.37,1.34.55,2.01.92-.64,0-2.52-.32-2.5-1.15Z"/>
    <path class="cls-4" d="M67.71,145.48c1.23-1.65-.81-4.45-1.62-5.99,1.26,1.26,3.38,4.45,1.62,5.99Z"/>
    <path class="cls-4" d="M65.62,69.36c.42.25.75.96.38,1.36-.16-.48-.41-.82-.38-1.36Z"/>
    <path class="cls-4" d="M66,65.37c-1.14-1-1.91-2.37-2.16-3.87,1.14.99,1.92,2.38,2.16,3.87Z"/>
    <path class="cls-4" d="M65.33,58.39c0,.32-.06.64-.19.95-.43-.46-.65-1.07-.63-1.68.24.29.51.53.82.73Z"/>
    <path class="cls-4" d="M65.31,62.52c-.39-.4-.64-.89-.71-1.46.58.49.82,1.14,1.2,1.74-.2-.01-.37-.16-.5-.28Z"/>
    <path class="cls-4" d="M66,28.14c-.17.41-.46.75-.88.92-.46.22-1.04-.16-1.02-.67.26.29.53.48.89.32.35-.13.66-.39,1.01-.57Z"/>
    <path class="cls-4" d="M65.33,58.39c0-.5-.18-.99-.48-1.39l.06-.04c1.91,2.66,6.87,1.28,10.78-1.46s6.9-6.92,5.05-9.63c-.09-.13-.19-.24-.29-.35l.37-.03c.53.25.85.6,1.05,1.01,1,3.13-2.09,7.05-5.74,9.61-1.86,1.3-3.99,2.34-5.98,2.79-1.01-.09-2.02-.13-3.04-.2.25.17.5.31.77.43-.95-.03-1.81-.27-2.53-.75Z"/>
    <path class="cls-4" d="M64.38,45.11c.86-2.4,3-4.76,5.71-4.82-2.34.98-4.02,2.91-5.38,4.98-.69,1.1-.71,1.1-.33-.16Z"/>
    <path class="cls-4" d="M64.85,57c.31.4.47.89.48,1.39-.3-.2-.57-.44-.82-.73,0-.28.07-.57.18-.84.05.06.1.12.15.18Z"/>
    <path class="cls-4" d="M64.77,132.07s.01.05.02.07c-.01.01-.03.03-.04.04l.03-.12Z"/>
    <path class="cls-4" d="M64.3,57.39c-2.22-3.25,1.15-7.8,5.23-10.66,4.08-2.86,9.51-4.48,11.81-1.29-.18-.02-.35,0-.53.06l-.37.03c-2.08-2.18-6.76-.8-10.49,1.81-3.9,2.74-6.89,6.92-5.05,9.63l-.06.04c-.05-.06-.1-.12-.15-.18-.12.27-.18.56-.18.84-.07-.09-.15-.18-.21-.27h0Z"/>
    <path class="cls-4" d="M63.31,64.38s.01,0,0,0h0Z"/>
    <path class="cls-4" d="M63.31,64.38s-.03,0-.04,0h.02s0-.01,0-.01h0s.01.01.01.01Z"/>
    <path class="cls-4" d="M62.49,21.17c1.04,1.29,2.02,2.07,2.92.16.21-.42.39-.86.58-1.31-.05.48-.15.96-.32,1.43-.77,2.18-2.48,1.56-3.18-.28Z"/>
    <path class="cls-4" d="M61.99,62.5c.06-.01.11-.03.17-.04.54.42,1.19.79,1.53,1.37.11.25-.1.37-.39.55-.56-.48-.88-1.24-1.3-1.87Z"/>
    <path class="cls-4" d="M65.94,146.83c-.64-2.74-2.21-3.17-4.41-3.23v-.74c2.34.06,4.38.56,5.13,3.77.17.5.43,1.06.74,1.72.98,2.09,2.46,5.26,2.95,11.4.28,3.49,1.03,6.38,1.75,9.19.92,3.56,1.72,6.63,1.29,10.04-.76,5.93.79,13.32,2.4,19.77,1.39,5.55.64,8.93-.07,12.2-.15.66-.3,1.35-.43,2.04-.33,1.74-.32,3.27-.31,4.75.01,1.94.02,3.77-.72,5.83-1.24,3.48.65,4.24,1.56,4.6l.07.03.05.05c5.77,5.61,9.04,6.41,10.77,6.11,1.12-.2,1.97-.92,2.59-2.2l.02-.03c.12-.19.12-.53,0-.93-.33-1.18-1.58-2.88-3.53-3.86-2.88-1.44-4.3-4.74-4.36-4.88l-.07-.16.09-.16c.18-.32.58-1.26.35-1.83-.08-.21-.25-.35-.51-.43l-.17-.05-.07-.16c-1.47-3.7-.87-9.93-.24-16.52.64-6.69,1.3-13.61-.29-17.85-.48-1.22-.67-4.23-.84-7.14-.14-2.38-.31-5.07-.63-5.61-.79-1.31.56-11.73.84-13.81l.02-.09c.6-1.51-2.14-14.27-2.91-16.07-.44-1.02-.52-2.51-.6-4.08-.07-1.34-.15-2.72-.43-3.97-.32-1.39-.91-1.82-1.73-2.42-.69-.5-1.53-1.13-2.37-2.47-2.21-1.56.83-13.16,1.48-15.5.71-2.6,3.16-11.06,4.88-11.06h.02c.63.02.8.84.85,1.11l.07.34-.17.05c-.1.42-.3,2.55,1.37,12.3,1.52,8.87,4.56,10.88,5.55,11.55.32.21.55.36.52.66-.02.23-.2.36-.35.44,0,.01-.01.03-.02.04-.06-.06-.11-.11-.16-.16.04.07.07.15.12.24-2.2,4-.17,11.09,1.63,17.35.81,2.83,1.58,5.51,1.84,7.57v.05c0,1.84-1.69,2.68-3.33,3.49-.76.37-1.54.76-2.13,1.23-1.16.93-1.57,3.42-2.01,6.05-.22,1.35-.45,2.75-.8,4.03-.49,1.8-.21,2.12-.15,2.17.28.21,1.33-.42,1.77-.68.44-.26.42-.72.35-1.57-.06-.79-.15-1.78.4-2.73l.03-.04c1.23-1.59,2.41-2.47,3.54-2.61-.01.04-.02.08-.03.12.04-.04.09-.08.14-.13.19-.02.38-.01.57.01,1.4.18,2.63,1.52,3.64,3.97.15.32,3.71,8.15,2.42,13.42-.72,2.97-.38,3.43-.31,3.49.11.09.57-.13.79-.23.1-.05.19-.09.28-.13.49-.21.46-.9.43-1.15l-.17-.2.55-.49.28.31c2.53,2.87,4.4,4.16,4.93,3.95.16-.07.25-.41.23-.92v-3.01c-.73-.65-3.96-3.91-4.31-10.42-.2-3.77-.47-4.56-.96-5.99-.44-1.27-1.03-3-1.88-7.53-.79-4.17-.96-5.1-.85-5.38-.04-.32-.16-1.1-.48-2.86-.7-3.93-.09-5.39.5-6.81.49-1.17.99-2.37.77-5.15-.34-4.08-1-5.55-1.78-7.25-.39-.85-.82-1.82-1.25-3.19-.72-2.3-.9-4.97-1.05-7.33-.13-1.85-.24-3.59-.6-4.85-.79-2.78-2.69-7.13-4.08-10.31-.78-1.78-1.39-3.19-1.62-3.87-.35-1.05-.23-2.06-.1-3.22.05-.45.1-.92.14-1.43.05-.74.06-1.56-.05-2.52-.34-3.03-3.11-3.91-3.39-3.99-.38-.06-.76-.13-1.15-.21-2.7-.58-5.45-1.68-7.39-2.56-1.25-.57-2.31-1.11-2.97-1.46-1.03-.55-1.28-.68-1.33-.83-1.72-2.5-1.1-7.51.01-10.49.35-.37.58-.63.62-.67l-.24-.21c.14-.29.28-.54.42-.75l.04-.05s1.51-1.61,3.33-3.28c-.01.01-.02.03-.03.05.38-.29.74-.63,1.09-.99.34-.29.67-.57.99-.84,1.55-1.29,2.67-2.21,2.76-3.46v-.05c.33-1.61,1.07-3.2,1.87-4.6,1.11-.99,2.15-2.06,3.1-3.21l.03.03c-1.15,1.39-3.6,4.66-4.27,7.9-.13,1.55-1.4,2.61-3.02,3.96-.41.34-.84.7-1.29,1.09-2,1.76-3.8,3.66-4.01,3.89-1.28,1.95-2.78,8.44-.8,11.28.71.41,6.91,3.9,12.36,4.73h.04s3.55,1.01,3.95,4.64c.19,1.71.04,3.05-.09,4.12-.13,1.12-.23,2.01.07,2.9.22.66.86,2.12,1.6,3.81,1.4,3.2,3.31,7.58,4.11,10.41.38,1.33.5,3.12.62,5.01.16,2.32.33,4.94,1.02,7.16.41,1.33.82,2.23,1.22,3.1.8,1.77,1.5,3.29,1.84,7.5.24,2.96-.3,4.25-.82,5.5-.57,1.37-1.12,2.67-.45,6.39.47,2.59.57,3.21.45,3.43.1.72.54,3.03.87,4.81.85,4.48,1.43,6.18,1.86,7.43.51,1.49.79,2.31,1,6.19.37,6.84,4.13,9.97,4.18,10l.14.11v3.35c.03.88-.2,1.43-.7,1.62-1.16.46-3.34-1.49-5.16-3.47-.09.41-.32.83-.83,1.05-.08.03-.16.07-.25.12-.47.22-1.1.53-1.58.15-.41-.33-.72-1.09.05-4.24,1.22-5.01-2.35-12.87-2.38-12.94-.9-2.17-1.96-3.39-3.06-3.53-1.04-.14-2.23.64-3.52,2.31-.42.75-.35,1.53-.29,2.28.07.86.14,1.76-.71,2.27-.86.51-1.92,1.15-2.6.64-.29-.22-.43-.58-.43-1.14,0-.47.1-1.07.31-1.82.34-1.24.57-2.62.79-3.96.46-2.78.89-5.4,2.28-6.51.66-.53,1.48-.93,2.27-1.32,1.56-.77,2.91-1.43,2.92-2.8-.25-2-1.01-4.64-1.81-7.44-1.87-6.51-3.99-13.9-1.43-18.14t0,0c-1.06-.71-4.29-2.86-5.87-12.04-1.62-9.44-1.55-12.04-1.29-12.78-.06-.24-.12-.35-.15-.39-1.19.48-4.99,11.52-6.12,19.76-.64,4.7.09,5.36.25,5.45l.09.04.05.09c.77,1.26,1.54,1.83,2.22,2.32.84.62,1.64,1.2,2.02,2.86.3,1.31.38,2.73.45,4.09.08,1.51.16,2.93.55,3.83.75,1.75,3.58,14.62,2.94,16.59-.54,4.09-1.13,9.74-1.08,12.17.01.57.06.97.15,1.12.39.66.54,2.69.73,5.95.16,2.72.35,5.79.79,6.91,1.65,4.41.98,11.41.34,18.19-.61,6.41-1.19,12.47.13,16.02.39.16.67.44.81.8.33.82-.1,1.87-.31,2.29.31.65,1.64,3.2,3.94,4.35,2.16,1.08,3.54,2.99,3.91,4.32.18.62.15,1.14-.07,1.52-.72,1.48-1.77,2.35-3.12,2.59-.26.05-.53.07-.81.07-2.67,0-6.22-2.12-10.56-6.33-1.48-.61-3.23-1.85-1.92-5.52.69-1.93.69-3.7.67-5.57,0-1.52-.01-3.08.33-4.89.13-.7.28-1.39.43-2.06.7-3.18,1.43-6.48.08-11.86-1.63-6.51-3.19-13.99-2.42-20.05.42-3.26-.37-6.27-1.27-9.76-.7-2.7-1.49-5.76-1.78-9.32-.48-6.01-1.86-8.97-2.88-11.14-.32-.68-.59-1.26-.78-1.83Z"/>
    <path class="cls-4" d="M61.94,62.43s.03.04.04.07c-.04,0-.07.02-.11.03l.07-.1Z"/>
    <path class="cls-4" d="M61.88,62.52s.07-.02.11-.03c.43.63.74,1.39,1.3,1.87,0,0,0,0,0,0h-.02s.03,0,.04,0c.01,0,.01,0,0,0,0,0,0,0-.01,0h0c.29-.19.5-.3.39-.56-.34-.58-.99-.95-1.53-1.37,1.05.04,3.08,1.07,1.91,2.27-.13.13-.27.21-.41.29-.11.07-.26.12-.41.11-.97-.18-1.33-1.82-1.45-2.64v-.11c.11.02.24.06.35.09-.06.01-.12.03-.17.04-.01-.03-.03-.05-.04-.07l-.07.1Z"/>
    <path class="cls-1" d="M78.8,181.74c-.26,1.71-.42,3.44-.46,5.17,0,1.31-.04,2.66.42,3.91.06.19.27.44.39.57.52.88.51,2.01.6,3.04.07,1.72.04,3.45-.02,5.17-.02.86-.07,1.73-.11,2.59.23-1.72.38-3.44.45-5.17.04-1.75.12-3.49-.33-5.21-.08-.31-.28-.64-.52-.87-.28-.42-.37-.94-.45-1.46-.31-2.56-.12-5.17.02-7.74ZM79.98,216.68c-.49-.13-.63-.62-.88-1.01-.43-.85-1.24-.96-2.03-.51-.96.55-.44,1.43.34,1.81-.83-.82-.84-1.46.44-1.7.69-.16,1.03.69,1.46,1.12.18.17.42.32.67.29ZM79.22,161.65c.03-1.39-.02-2.78-.15-4.17-.07-.7-.16-1.39-.33-2.08-.1-.32-.18-.67-.45-.91-.24-.22-.34-.59-.48-.94-.75-2.29-1.42-5.68-1.99-8.07.37,2.77.8,5.52,1.64,8.19.16.43.27.82.66,1.17.14.18.2.42.27.65.35,1.32.48,2.72.62,4.09.08.69.13,1.38.2,2.07ZM78.48,173.31c-.26-1.1-1.74-1.35-2.66-.98.93.18,1.97.25,2.66.98ZM77.05,178.12c-.8.65-1.7-1.21-2.15-1.73.34,1.5,1.73,3.4,2.87,1.25.01-.03.04-.06.01-.11-.08-.07-.16.05-.22.1.04-.01.08-.03.12-.04-.13.13-.48.41-.63.53ZM66.09,139.49c.8,1.54,2.85,4.34,1.62,5.99,1.77-1.54-.36-4.73-1.62-5.99ZM66.66,146.63c-.75-3.21-2.79-3.71-5.13-3.77l-.08-9.85c.14.13.3.25.47.35.77.35,1.72.82,2.54.4.54-.37.49-1.07.34-1.62.63-.58,1.48-1.21,2.37-.93-.93-.4-1.93.25-2.62.85.07.27.12.57.08.85-.09.96-1.18.7-1.8.46-.59-.18-1.05-.5-1.39-.9l-.07-7.82-.28-33.56c1.77-.05,2.6-4.97,2.76-6.38-.38,1.23-1.43,5.88-2.74,6.03h-.02l-.1-12.03c.13.01.29.02.49.02.32,0,.73-.02,1.24-.07,1.16-.13,3.33-2.28,4.39-3.41-1.12,2.99-1.74,7.99-.01,10.49.05.15.3.28,1.33.83.66.35,1.72.89,2.97,1.46,1.94.88,4.69,1.98,7.39,2.56l-.02,1.06c1.45,1.17,2.73,2.59,3.37,4.35.14.4.24.84.34,1.26l.9.05c-.03.51-.09.99-.14,1.43-.13,1.16-.25,2.17.1,3.22.23.69.84,2.09,1.62,3.87,1.39,3.18,3.29,7.53,4.08,10.31.36,1.26.47,3.01.6,4.85.16,2.36.34,5.03,1.05,7.33.43,1.37.86,2.34,1.25,3.19.77,1.7,1.44,3.17,1.78,7.25.22,2.78-.28,3.99-.77,5.15-.59,1.41-1.2,2.87-.5,6.81.32,1.77.44,2.55.48,2.86-.11.28.06,1.21.85,5.38.85,4.53,1.45,6.27,1.88,7.53.49,1.43.76,2.22.96,5.99.35,6.51,3.59,9.77,4.31,10.42v3.01c.02.51-.07.85-.23.92-.53.21-2.4-1.08-4.93-3.95l-.28-.31-.55.49.17.2c.03.25.06.94-.43,1.15-.09.04-.18.08-.28.13-.22.1-.67.33-.79.23-.08-.06-.42-.52.31-3.49,1.29-5.26-2.28-13.1-2.42-13.42-1.02-2.45-2.24-3.79-3.64-3.97-.19-.03-.38-.03-.57-.01.61-.6,1.37-1.67,2.24-1.01-.67-1.25-2.09.07-2.35,1.03-1.12.15-2.31,1.02-3.54,2.61l-.03.04c-.55.96-.47,1.94-.4,2.73.07.85.09,1.31-.35,1.57-.44.26-1.49.89-1.77.68-.06-.05-.35-.37.15-2.17.35-1.28.58-2.68.8-4.03.44-2.63.85-5.12,2.01-6.05.6-.48,1.38-.86,2.13-1.23,1.64-.81,3.33-1.65,3.33-3.49v-.05c-.26-2.06-1.03-4.73-1.84-7.57-1.8-6.26-3.83-13.35-1.63-17.35.66,1.29,2.07,3.54,3.55,2.18.16-.19.29-.39.38-.61-1.5,1.9-2.83-.5-3.9-1.64,0-.01.01-.03.02-.04.15-.08.33-.21.35-.44.03-.3-.2-.45-.52-.66-1-.66-4.03-2.68-5.55-11.55-1.68-9.75-1.48-11.88-1.37-12.3l.17-.05-.07-.34c-.06-.27-.22-1.09-.85-1.11h-.02c-1.72,0-4.17,8.46-4.88,11.06-.64,2.34-3.68,13.94-1.48,15.5.83,1.34,1.68,1.96,2.37,2.47.82.6,1.41,1.04,1.73,2.42.28,1.25.36,2.63.43,3.97.09,1.58.17,3.06.6,4.08.77,1.81,3.51,14.56,2.91,16.07l-.02.09c-.28,2.07-1.63,12.5-.84,13.81.32.54.48,3.23.63,5.61.18,2.91.36,5.92.84,7.14,1.59,4.24.93,11.16.29,17.85-.63,6.6-1.23,12.83.24,16.52l.07.16.17.05c.27.08.43.22.51.43.23.56-.18,1.51-.35,1.83l-.09.16.07.16c.06.14,1.48,3.44,4.36,4.88,1.95.98,3.2,2.69,3.53,3.86.12.41.12.75,0,.93l-.02.03c-.62,1.29-1.46,2-2.59,2.2-1.73.31-5-.5-10.77-6.11l-.05-.05-.07-.03c-.91-.37-2.8-1.12-1.56-4.6.73-2.06.73-3.89.72-5.83,0-1.48-.01-3.01.31-4.75.13-.69.28-1.37.43-2.04.72-3.27,1.46-6.65.07-12.2-1.61-6.45-3.16-13.84-2.4-19.77.44-3.4-.36-6.48-1.29-10.04-.73-2.8-1.48-5.7-1.75-9.19-.49-6.15-1.97-9.31-2.95-11.4-.31-.66-.57-1.22-.74-1.72ZM94.56,168.62c.09-.68.05-1.4-.19-2.06-.22-.67-.64-1.26-1-1.82-.81-1.12-1.14-2.41-1.12-3.79-.32,1.36-.01,2.86.81,3.99.82,1.12,1.44,2.27,1.5,3.68ZM89.54,147.35c.1-1.16.04-2.32-.06-3.48-.39-.12-.65-.51-.87-.92-1.26-2.71-1.71-5.92-2.36-8.83.2,2.12.99,8.87,2.93,9.96.14,1.08.24,2.17.24,3.26,0,.37-.01.75-.09,1.11.12-.35.18-.73.21-1.11ZM86.03,231.1c-.29-1.15-1.15-1.74-2.29-1.91-1.01-.19-2.01-.31-3.04-.37.96.34,1.97.53,2.97.73,1.07.15,1.81.6,2.36,1.55ZM79.69,223.97c-1.71-.24-4.31.28-4.56,2.32.52-1.3,1.96-1.78,3.22-2.06.39-.09.95-.17,1.34-.26ZM77.67,101.26c-.3-1.34,0-2.6.41-3.9-.89,1.03-1.23,2.73-.41,3.9ZM68.58,92.09c.19,0,.37-.03.55-.06-.18-.05-.35-.08-.53-.12-1.2-.25-2.19-1.08-2.61-2.25-.06,1.37,1.26,2.48,2.59,2.44Z"/>
    <path class="cls-4" d="M66,34.49c-1.69.47-3.6,1.5-5.39,1.18v-.25c1.8.08,3.56-.88,5.39-.93Z"/>
    <path class="cls-4" d="M59.37,196.04l-.45-52.43h.6c.22,0,.43,0,.64-.01.48,0,.93,0,1.36,0l.85,99.36-2.61.02-.39-46.19c.39,0,.78.01,1.17.01v-.74c-.39,0-.78,0-1.17-.01Z"/>
    <path class="cls-4" d="M61.91,133.36c-.17-.1-.33-.22-.47-.35v-.54c.34.41.79.72,1.38.9.62.24,1.71.5,1.8-.46.03-.28,0-.58-.08-.85.69-.61,1.69-1.25,2.62-.85-.9-.28-1.74.35-2.37.93,0-.03-.01-.05-.02-.07l-.03.12s.03-.03.04-.04c.15.55.21,1.24-.34,1.62-.82.42-1.77-.04-2.54-.4Z"/>
    <path class="cls-4" d="M61.46,78.72c-.19,0-.35,0-.49-.02v-.37c.33.02.89.03,1.68-.06,1.16-.13,3.84-2.91,4.77-3.96l.04.03c-.13.27-.26.57-.38.89-1.06,1.13-3.23,3.29-4.39,3.41-.5.06-.91.07-1.24.07Z"/>
    <path class="cls-4" d="M61.88,74.44c-.34-.08-.64-.08-.94-.06v-.37c.37-.03.74.1.94.44Z"/>
    <path class="cls-4" d="M61.43,132.47c-1.58-1.86-.81-5.68-.38-7.82h.32s.07,7.82.07,7.82Z"/>
    <path class="cls-4" d="M61.33,72.43h-.01s0,0,.01,0Z"/>
    <path class="cls-4" d="M60.91,70.51v-.35s.1.05.15.09c.08.06.12.1.16.22.01.06,0,.13-.01.19l-.29-.14Z"/>
    <path class="cls-4" d="M61.13,38.46l-.23-.02.1-.04s.09.04.13.06Z"/>
    <path class="cls-4" d="M63.84,84.71c-.16,1.41-.99,6.33-2.76,6.38v-.35h.01c1.31-.15,2.36-4.8,2.74-6.03Z"/>
    <path class="cls-4" d="M60.97,78.33v.37c-.31-.02-.47-.06-.48-.06l.09-.36s.13.03.39.05Z"/>
    <path class="cls-4" d="M60.91,70.59v-.08l.29.14c.02-.05.02-.13.01-.19-.03-.12-.08-.16-.16-.22-.05-.03-.1-.06-.15-.09v-.15c.78-.72,2.13-.31,3.04,0,.32.07.67.29.98.09-.06.19-.29.29-.48.32-.86.15-1.78-.15-2.6-.04-.29.04-.5.14-.66.35l-.26-.13Z"/>
    <path class="cls-4" d="M60.94,74v.37c-.3.02-.6.06-.93.06.22-.25.58-.41.93-.44Z"/>
    <path class="cls-1" d="M77.73,58.43c2.99-1.45,4.99-5.62,5.74-8.73-1.87,2.99-3.23,6.22-5.74,8.73ZM66.57,47.33c3.07-3.28,7.52-5.17,11.96-3.99,1.43.35,2.82.93,4.18,1.61-5.26-4.27-12.41-3.35-16.14,2.38ZM81.34,45.44c-2.3-3.19-7.73-1.57-11.81,1.29-4.08,2.86-7.45,7.41-5.23,10.66h0c.07.1.14.19.21.28-.02.61.19,1.22.63,1.68.13-.31.19-.63.19-.95.72.48,1.58.72,2.53.75,1.53.69,3.38.68,4.96.17-.9-.21-1.79-.32-2.69-.41,1.99-.45,4.13-1.49,5.98-2.79,3.65-2.56,6.74-6.48,5.74-9.61.12.23.19.48.26.75.16.63.19,1.27.36,1.91.39-.71.52-1.58.29-2.37-.15-.64-.75-1.27-1.42-1.36ZM69.04,13.75c-.23.19-.39.49-.61.63-.04.03-.06.03-.09.03-.19-.04-.31-.22-.48-.37-.06.4.34.92.76.66.33-.24.42-.58.42-.95ZM65.62,69.36c-.03.54.22.89.38,1.36.37-.41.04-1.11-.38-1.36ZM64.6,61.06c.06.57.32,1.06.71,1.46.13.12.29.27.5.28-.39-.61-.62-1.26-1.2-1.74ZM66,65.37c-.24-1.49-1.02-2.88-2.16-3.87.25,1.5,1.01,2.87,2.16,3.87ZM65.41,21.33c-.9,1.91-1.88,1.12-2.92-.16.7,1.84,2.41,2.46,3.18.28.18-.47.27-.95.32-1.43-.19.45-.38.89-.58,1.31ZM61.33,72.43s0,0-.01,0h.01ZM61.81,62.48c.13.82.48,2.47,1.45,2.64.15.01.3-.04.41-.11.14-.08.28-.16.41-.29,1.17-1.2-.87-2.23-1.91-2.27-.12-.03-.24-.07-.37-.09v.11ZM60.45,16.28l-.07-7.87c.55.42,1.47-.2,1.72-.92-.31.2-.82.61-1.17.69-.22.07-.4-.04-.55-.19h0s-.03-3.91-.03-3.91h.05l.04.74c8.15-.41,18.55,5.07,23.68,12.47,2.71,3.9,5.26,10.14,2.01,17.7-.04.08-.74,1.61-.74,1.61-.03.04-.39.68-.53,1.49,0-2.26.56-4.41.83-6.7-1.27,2.2-2.05,5.4-.85,7.77.03.18.08.37.15.55.37.92-.15,2.48-.37,3.01l-.03.07v.08c0,.17,0,.33.01.49-.32-1.15-.67-2.29-1.04-3.42-.08-2.06-.53-4.6-.09-6.59.38-1.15,1.33-2.46,1.42-3.8.19-2.55-.66-5.08-1.75-7.32,2.52,10.48-1.13,7.48-.94,13.25.06,1.5.28,3.06.51,4.54-1.49-1.24-4.16-1.27-5.84-.76.57.12,1.16.2,1.74.28,2.29,1.09,4.64,2.61,5.44,5.11.16.46.47,1.64.61,2.13.04.15.09.29.13.45-.02,2.38-.65,5.02-3.92,9.09-.34.39-.96,1.14-1.65,2.12-2.05,1.49-3.91,3.23-5.53,5.18.76-.48,1.51-.99,2.23-1.53-1.5,2.77-2.81,5.6-4.63,8.19-1.83,1.67-3.32,3.27-3.33,3.28l-.04.05c-.14.21-.28.47-.42.75l-.04-.03c-.93,1.06-3.61,3.84-4.77,3.96-.8.09-1.35.08-1.68.06l-.04-3.96c.3-.02.6-.02.94.06-.2-.34-.57-.46-.94-.44v-1.26c.06,0,.13-.01.19,0,.41.25,1.82-.18,2.49-.49-.76.03-1.5.22-2.25.19h-.04s-.07-.04-.07-.04c-.13-.03-.24-.03-.34-.02v-1.78s.25.13.25.13c.16-.2.37-.3.66-.35.83-.11,1.75.18,2.6.04.19-.03.42-.13.48-.32-.31.2-.66-.01-.98-.09-.9-.31-2.26-.71-3.04,0l-.27-31.27c.11.07.22.14.33.22,2.48-.82,4.97-1.68,7.52-2.22.83-.17,1.68-.32,2.55-.29-.84-.28-1.75-.27-2.62-.21-2.59.24-5.07,1.08-7.41,2.16-.12-.06-.25-.12-.37-.18l-.02-2.55c1.78.32,3.69-.71,5.39-1.18-1.83.06-3.58,1.02-5.39.93l-.16-18.81c.83.22,1.64.01,1.95-1.08.16-.5.13-1.01.09-1.49-.3,1.99-.96,2.48-2.05,2.23ZM80.17,14.89c-.49.34-.25,1.37.42,1.08-.41-.29-.29-.6-.42-1.08ZM79.54,19.2c-.14.03-.28.07-.41.12-1.16.37-1.58-.03-1.94-1.13-.26,1.63,1.29,2.13,2.34,1.01ZM71.73,13.4c1.14.72,2.59.72,3.87.65-.51-.1-1.03-.19-1.53-.28-1.45-.29-3.62-.66-1.8-2.38-.78.39-1.46,1.36-.54,2.02ZM73.03,18.6c.26-.54.44-1.11.56-1.68-.26.53-.52,1.05-.81,1.54-1.23,2.15-2.53,1.36-3.74-.27.88,2.16,2.89,2.82,3.99.41ZM70.48,23.96c.12.92,1.31.82,1.52,0-.59.28-.91.47-1.52,0ZM64.71,45.27c1.36-2.07,3.04-4,5.38-4.98-2.7.06-4.85,2.41-5.71,4.82-.38,1.27-.37,1.26.33.16ZM67.42,8.37c-.16,0-.31.02-.47.06-.14.06-.34.1-.42.37-.02.83,1.86,1.15,2.5,1.15-.67-.37-1.38-.55-2.01-.92-.12-.06-.2-.16-.2-.19.03-.19.41-.36.6-.47ZM65.11,29.06c.42-.18.72-.51.88-.92-.35.18-.66.44-1.01.57-.36.16-.64-.03-.89-.32-.02.51.56.89,1.02.67Z"/>
    <path class="cls-4" d="M61.26,72.39l.07.05h0s.04,0,.04,0c.75.03,1.49-.16,2.25-.19-.67.31-2.08.73-2.49.49-.06-.01-.13,0-.2,0v-.37c.09-.01.2,0,.33.02Z"/>
    <path class="cls-4" d="M62.4,15.54c-.32,1.09-1.12,1.29-1.95,1.08v-.34c1.09.25,1.75-.25,2.05-2.23.04.49.06,1-.09,1.49Z"/>
    <path class="cls-4" d="M60.91,70.51l-.29-.14c.06-.1.12-.19.19-.26.03.01.07.03.1.05v.35Z"/>
    <path class="cls-4" d="M60.96,38.96c-.11-.08-.22-.15-.33-.22v-.52c.12.05.25.11.37.18l-.1.04.23.02s-.09-.04-.13-.06c2.34-1.08,4.83-1.92,7.41-2.16.87-.06,1.78-.07,2.62.21-.87-.03-1.71.12-2.55.29-2.56.55-5.05,1.4-7.52,2.22Z"/>
    <path class="cls-4" d="M60.9,70.01v.15s-.07-.03-.1-.05c.03-.04.06-.07.1-.1Z"/>
    <path class="cls-4" d="M62.1,7.48c-.25.72-1.17,1.34-1.72.92v-.42c.15.15.33.25.55.19.35-.07.86-.48,1.17-.69Z"/>
    <path class="cls-4" d="M60.58,70.44l.32.16v1.78c-.12.01-.23.06-.34.08-.56.18-1.13.23-1.65-.08h-.61s-.02-2.14-.02-2.14h.73c.55-.15,1.26.28,1.61.51-.06-.04-.1-.22-.05-.3Z"/>
    <path class="cls-4" d="M60.54,196.05v.74c-.39,0-.78,0-1.17-.01v-.74c.39,0,.78.01,1.17.01Z"/>
    <path class="cls-4" d="M61.44,133.01c-2.08-1.87-1.14-6.04-.39-8.36-.42,2.13-1.2,5.96.38,7.82v.54Z"/>
    <path class="cls-4" d="M60.45,16.28v.34c-.69-.18-1.4-.64-1.86-1.11.72.37,1.34.66,1.86.78Z"/>
    <path class="cls-4" d="M57.8,12.53l-.06-7.29s.09.03.13.04l.25-.7c-.13-.04-.25-.09-.38-.13l-.04-4.17,2.61-.02.03,3.81.03,3.91c-.06-.06-.12-.13-.16-.19-.07-.1-.13-.2-.21-.3,0,.13.02.25.04.38.07.26.19.44.34.54l.07,7.87c-.52-.12-1.14-.41-1.86-.78h-.76s-.03-2.87-.03-2.87c.17.06.34.13.51.2-.16-.11-.34-.21-.51-.31Z"/>
    <path class="cls-4" d="M60.38,7.98v.42c-.14-.1-.26-.28-.33-.54-.02-.13-.04-.25-.04-.38.08.1.14.2.21.3.05.07.1.13.16.19h0Z"/>
    <path class="cls-4" d="M59.99,90.03c-.31-.66-.51-1.36-.66-2.06l.08-.07s.01.04.02.06l.24.66c.23.6.47,1.18.84,1.7.15.18.36.41.57.41v.35h-.01c-.58-.09-.85-.6-1.08-1.06Z"/>
    <path class="cls-4" d="M60.64,70.74c-.36-.24-1.06-.66-1.61-.52.23-.29.68-.31,1.02-.28.26.03.53.07.76.18-.07.07-.13.16-.19.26l.29.14v.08l-.32-.16c-.05.09,0,.26.05.3Z"/>
    <path class="cls-4" d="M60.17,143.6c-.21,0-.43,0-.64,0v-.74c.22,0,.43,0,.64,0,.46,0,.92,0,1.36,0v.74c-.42-.01-.88,0-1.35,0Z"/>
    <path class="cls-4" d="M59.18,74.02c-.28-.05-.57-.1-.86-.15v-1.5s.6,0,.6,0c.26.33.69.51,1.11.5.26.02.62-.1.89-.13v1.26c-.34.02-.7.19-.92.44l-.86-.15.04-.27Z"/>
    <path class="cls-4" d="M60.93,72.74c-.27.03-.63.15-.89.13-.42.01-.85-.17-1.11-.5.52.32,1.09.26,1.65.08.11-.02.22-.06.35-.08v.37Z"/>
    <path class="cls-4" d="M59.32,87.63c.06.07.11.15.17.22l-.08.06c-.03-.09-.06-.18-.09-.28Z"/>
    <path class="cls-4" d="M59.32,87.63c.03.09.06.18.09.28l-.08.07c-.03-.15-.06-.29-.08-.44.02.03.04.07.07.1h0Z"/>
    <path class="cls-4" d="M60.61,35.67c-.42-.07-.84-.23-1.25-.48.42.15.83.22,1.24.24v.25Z"/>
    <path class="cls-4" d="M59.2,87.29c.04.11.08.22.12.34-.03-.03-.06-.06-.07-.1-.02-.08-.03-.16-.04-.24Z"/>
    <path class="cls-4" d="M59.02,56.01l.27.69c-.37.15-.74.22-1.1.23v-.74c.27,0,.55-.06.83-.18Z"/>
    <path class="cls-4" d="M59.18,74.02l-.04.27-.08.47c-.24-.04-.48-.08-.72-.12v-.76c.28.05.57.1.85.15Z"/>
    <polygon class="cls-4" points="59.09 113.65 59.12 114.39 58.67 114.41 58.67 113.67 59.09 113.65"/>
    <polygon class="cls-4" points="60.01 121.04 58.73 121.06 58.72 120.32 60 120.29 60.01 121.04"/>
    <path class="cls-4" d="M58.45,87.71v-1.28c.25.37.52.74.8,1.1.03.15.05.29.08.44l-.42.34c-.16-.2-.31-.39-.46-.6Z"/>
    <path class="cls-4" d="M59.05,45.56c-.32.01-.64.03-.96.06l-.02-2.06c.15-.01.3-.02.45-.02l-.02-.74c-.14,0-.29.01-.43.02l-.04-5.26h.61c.69.38,1.36.76,2,1.2l.27,31.27s-.07.06-.1.1c-.24-.1-.5-.15-.76-.18-.34-.03-.78,0-1.02.28h-.73s-.04-5.33-.04-5.33c.29-.04.57-.1.87-.16-.28-.09-.58-.14-.88-.16l-.02-2.07c.47-.03.93-.09,1.39-.16-.47-.04-.93-.09-1.39-.15l-.04-5.26c.36-.01.73-.08,1.1-.23l-.27-.69c-.28.11-.57.17-.84.18l-.09-9.83c.34-.03.66-.04.99-.06l-.03-.74Z"/>
    <path class="cls-4" d="M59.08,98.87c-.1.72-.25,1.92.13,2.78l.03.09c.12.72,0,1.21-.37,1.46-.09.06-.19.1-.3.12l-.04-4.86c.06,0,.12,0,.18,0h.42l-.06.42Z"/>
    <path class="cls-4" d="M58.43,86.43l-.07-8.67c.19.01.37.01.55.01h.2v-.74c-.26,0-.51,0-.76-.01l-.02-2.39c.24.04.48.08.72.12l.08-.47.86.15c.34,0,.64-.04.93-.06l.04,3.96c-.26-.02-.39-.05-.39-.05l-.09.36s.17.04.48.06l.1,12.03c-.2,0-.42-.23-.57-.41-.37-.51-.61-1.1-.84-1.7l-.24-.66s-.01-.04-.02-.06l.08-.06c-.06-.07-.11-.14-.17-.22h0c-.04-.12-.08-.23-.12-.34.01.08.03.16.04.24-.28-.36-.55-.73-.81-1.1Z"/>
    <path class="cls-4" d="M58.91,77.78c-.18,0-.37,0-.55-.01v-.74c.25.01.5.02.74.01v.74h-.19Z"/>
    <path class="cls-4" d="M60.64,38.74c-.64-.44-1.31-.82-2-1.2.69.15,1.36.38,2,.68v.52Z"/>
    <path class="cls-4" d="M58.23,62.18c.46.06.92.11,1.39.15-.46.07-.92.13-1.39.16v-.31Z"/>
    <path class="cls-4" d="M58.73,121.06l-4.46.09c.2-.24.31-.5.36-.75l4.09-.08v.74Z"/>
    <path class="cls-4" d="M58.46,89.97c.23.05.47.07.72.07h.06v.74h-.06c-.25,0-.49-.02-.72-.06v-.76Z"/>
    <path class="cls-4" d="M59.19,90.05c-.25,0-.49-.03-.72-.07l-.02-2.26c.15.2.3.4.46.6l.42-.34c.15.7.35,1.39.66,2.06.23.46.5.97,1.08,1.06h.01l.28,33.56h-.32c-.75,2.32-1.69,6.49.39,8.36l.08,9.85c-.44-.01-.9,0-1.36,0-.21,0-.42,0-.64,0v.74h-.6s-.19-22.54-.19-22.54l1.28-.03v-.74s-1.29.03-1.29.03l-.05-5.9.45-.02-.04-.74-.42.02-.09-10.34c.11-.02.21-.06.3-.12.36-.25.48-.74.37-1.46l-.03-.09c-.38-.85-.23-2.06-.13-2.78l.06-.42h-.42c-.06,0-.12,0-.18,0l-.07-7.73c.23.04.47.06.72.06h.07v-.74h-.07Z"/>
    <path class="cls-4" d="M58.49,42.78l.02.74c-.15,0-.29.01-.45.02v-.74c.14-.01.28-.02.42-.02Z"/>
    <path class="cls-2" d="M58.36,77.76l.07,8.67c-2.12-3.05-3.61-6.44-5-9.79,1.65.66,3.38,1.05,4.93,1.12Z"/>
    <path class="cls-4" d="M58.88,22.23c-.33.11-.66.22-.99.33v-.78c.25-.09.5-.17.76-.25l.23.71Z"/>
    <path class="cls-4" d="M59.12,64.73c-.3.06-.58.11-.87.16v-.31c.29.01.59.07.87.16Z"/>
    <path class="cls-8" d="M58.33,74.63l.02,2.39c-1.67-.09-3.56-.57-5.32-1.36-.04-.1-.09-.21-.13-.31-.28-.69-.57-1.39-.87-2.1,2.09.58,4.23,1.01,6.3,1.38Z"/>
    <path class="cls-4" d="M58.33,73.87v.76c-2.07-.37-4.2-.8-6.3-1.38-.12-.29-.25-.59-.37-.88,2.2.65,4.47,1.11,6.67,1.5Z"/>
    <path class="cls-3" d="M58.52,101.9c.07.48-.02.65-.06.68-.03.02-.17.03-.39-.11-.47-.28-.94-.94-.88-1.56,0-.47.16-.9.46-1.23.18-.2.4-.35.64-.42-.09.77-.13,1.8.23,2.64Z"/>
    <path class="cls-4" d="M58.25,64.57v.31c-.7.12-1.37.19-2.11.25.62-.41,1.37-.61,2.11-.57Z"/>
    <path class="cls-4" d="M58.12,4.58l-.25.7s-.09-.03-.13-.04v-.79l.38.13Z"/>
    <path class="cls-4" d="M58.09,46.36v-.74c.32-.03.64-.04.96-.06l.03.74c-.32.01-.65.03-.99.06Z"/>
    <path class="cls-4" d="M57.8,12.53c.17.1.34.2.51.31-.17-.07-.34-.14-.51-.2v-.1Z"/>
    <path class="cls-4" d="M58.65,21.53c-.25.08-.51.17-.76.25l-.04-5.02c.11.04.22.09.33.15-.11-.07-.22-.15-.33-.22v-1.18s.75,0,.75,0c.46.48,1.17.94,1.86,1.11l.16,18.81c-.41-.01-.83-.09-1.24-.24.41.26.82.41,1.25.48l.02,2.55c-.64-.3-1.31-.53-2-.68h-.61s-.13-14.97-.13-14.97c.33-.11.66-.22.99-.33l-.23-.71Z"/>
    <path class="cls-4" d="M57.84,16.68c.11.07.22.14.33.22-.11-.05-.22-.1-.33-.15v-.07Z"/>
    <path class="cls-4" d="M57.8,12.53v.1c-2.6-.98-5.38-.96-8.14-.88,2.67-.57,5.71-.58,8.14.78Z"/>
    <path class="cls-7" d="M34.51,18.45c1.1,1.97,3.29,2.75,5.46,2.05-.8.01-1.61.02-2.38-.18-1.23-.23-2.15-1.03-2.99-1.92.57-.3,1.13-.63,1.62-1.02.35-.28.6-.7.7-1.18.89-4.31,3.47-7.84,7.26-9.95,4.06-2.27,9.01-2.64,13.58-1.02l.06,7.29c-2.43-1.36-5.47-1.34-8.14-.78,2.76-.08,5.54-.1,8.14.88l.03,2.88v1.18c-2.56-1.55-5.87-1.29-8.67-.56,2.92-.23,5.92-.51,8.68.63l.04,5.02c-3.9,1.29-7.9,2.74-11.52,4.75h0c-3.67,1.2-8.83,1.84-11.7-.03-1.23-.8-1.94-2-2.12-3.57.08-.01.15-.03.23-.04-.08-.01-.16-.03-.24-.04-.11-1.02,0-2.19.32-3.51.34-.19.7-.38,1.07-.56.2-.1.4-.2.6-.31Z"/>
    <path class="cls-4" d="M57.84,16.75c-2.76-1.14-5.76-.86-8.68-.63,2.8-.73,6.12-.99,8.68.56v.07Z"/>
    <path class="cls-4" d="M56.83,100.73l-.06.37-.35-.06c0-.06,0-.11,0-.16,0-.07,0-.14.01-.21l.39.06Z"/>
    <path class="cls-4" d="M57.64,99.69c-.3.33-.46.76-.46,1.23-.06.62.41,1.28.88,1.56.22.13.36.13.39.11.04-.03.13-.2.06-.68-.37-.85-.32-1.87-.23-2.64-.24.08-.46.22-.64.42ZM57.68,103.12c-.63-.38-1.26-1.21-1.26-2.07l.35.06.06-.37-.39-.06c.04-.54.27-1.07.64-1.49.39-.43.9-.68,1.45-.73l.04,4.86c-.06.01-.12.02-.18.02-.22,0-.47-.07-.72-.22Z"/>
    <path class="cls-4" d="M55.53,100.91l.06-.37.86.13c0,.07-.01.14-.01.21,0,.06,0,.11,0,.16l-.9-.14Z"/>
    <path class="cls-4" d="M58.09,46.36c-.77.06-1.59.15-2.51.28,0-.1,0-.19,0-.29,0-.16,0-.31,0-.46.91-.13,1.73-.23,2.51-.28v.74Z"/>
    <path class="cls-8" d="M55.58,45.89c-.02-.65-.11-1.27-.26-1.86.97-.26,1.89-.42,2.76-.48l.02,2.06c-.78.05-1.6.15-2.51.28Z"/>
    <path class="cls-4" d="M55.08,46.71l-.12-.73c.21-.03.41-.06.61-.09,0,.15.01.3,0,.46,0,.1,0,.19,0,.29-.16.02-.33.05-.5.07Z"/>
    <path class="cls-4" d="M55.03,52.44c-.34-.85.31-1.84,1.11-2.15-.45.73-.89,1.32-1.11,2.15Z"/>
    <path class="cls-8" d="M40.01,33.21c.99-1.62,1.94-3.14,3.63-4.11.98-.7,2.02-1.33,3.08-1.92,1.62-.54,2.95-1.18,3.69-1.74l-.04-.06c2.46-1.08,5.01-1.98,7.52-2.82l.13,14.98.04,5.26c-.93.06-1.93.23-2.97.52-.57-1.55-1.64-2.82-3.14-3.69-2.67-1.56-6.25-1.56-8.91,0-1.62.95-2.74,2.36-3.27,4.09l-2.84-1.02c.17-1.2.37-2.4.51-3.25.84-1.64,1.36-3.22,1.42-4.47.41-.58.78-1.18,1.14-1.76ZM47.83,28.49c-3.39,1.56-6.73,4.99-5.74,9.02l.16.73c1.57-3.09,4.81-4.9,8.07-5.73l-.27-1.08c-.84.25-1.6.56-2.37.92-1.52.72-2.94,1.66-4.1,2.88-.4.43-.76.9-1.08,1.4-.57-3.5,2.38-6.57,5.32-8.13Z"/>
    <path class="cls-4" d="M55.31,44.03c-.06-.24-.14-.48-.22-.71,1.04-.28,2.04-.46,2.97-.52v.74c-.86.06-1.78.22-2.75.48Z"/>
    <path class="cls-4" d="M55.31,44.03c-.2.05-.4.11-.61.17l-.09-.29-.13-.42c.2-.06.4-.12.6-.17.09.23.16.47.22.71Z"/>
    <path class="cls-4" d="M55.12,217.77l-.15.44c-.1-.07-.2-.13-.31-.2s-.22-.14-.34-.22l.09-.26.7.24Z"/>
    <path class="cls-4" d="M58.67,114.41l-4.42.22c-.07-.28-.21-.53-.41-.73l4.82-.24v.74Z"/>
    <path class="cls-4" d="M54.83,218.31s-.03.03-.04.05l-.6-.2.1-.3.53.45Z"/>
    <path class="cls-4" d="M54.46,45.99c-.02-.69-.12-1.34-.31-1.94l.46-.14.09.29c.2-.06.41-.12.61-.17.16.58.25,1.21.26,1.86-.2.03-.4.06-.61.09h-.5Z"/>
    <path class="cls-3" d="M58.72,120.32l-4.09.08c.01-.07.03-.13.03-.19v-.04s0-.04,0-.04c-.22-2-.32-3.89-.35-5.11,0-.13-.02-.25-.06-.37l4.42-.22.05,5.9Z"/>
    <path class="cls-4" d="M58.45,87.71c-2.66-3.53-4.37-7.55-5.99-11.48h.01c.32.14.64.28.96.41,1.39,3.35,2.88,6.74,5,9.79v1.28Z"/>
    <path class="cls-4" d="M52.1,51.62c1.56-1.22,2.4-3.06,2.37-5.27v-.02c0-.12,0-.23,0-.35h.5s.12.72.12.72c.17-.03.34-.05.5-.07-.04,2.38-.96,4.38-2.65,5.75,0-.13.02-.25.05-.35l-.72-.21-.17-.2Z"/>
    <path class="cls-4" d="M54.66,218c.11.07.21.13.31.2l-.06.19-.11-.04s.03-.03.04-.05l-.53-.45.02-.07c.11.08.23.15.34.22Z"/>
    <path class="cls-4" d="M54.63,120.39c-.05.25-.16.51-.36.75h-.08v-.74s.44,0,.44,0Z"/>
    <path class="cls-4" d="M53.92,120.16c-.22-2.01-.32-3.9-.35-5.13,0-.13-.03-.25-.08-.35h.06s.7-.04.7-.04c.03.12.05.24.06.37.04,1.23.13,3.11.35,5.11v.04s0,.04,0,.04c0,.06-.02.13-.03.19h-.45s-.29-.09-.29-.09c.01-.05.02-.1.03-.15Z"/>
    <path class="cls-4" d="M53.55,114.67l-.04-.74.34-.02c.19.2.34.45.41.73l-.7.03Z"/>
    <path class="cls-4" d="M53.11,210.94c-.04-.31-.09-.6-.13-.9.19-.1.37-.25.53-.43l.16-.02c.06.41.12.82.18,1.24.25,1.67.51,3.39.53,5.7,0,.41.22.56.67.84.09.05.18.11.26.16l-.19.23-.7-.24-.09.26c-.36-.25-.69-.61-.69-1.24-.01-2.27-.27-3.96-.52-5.6Z"/>
    <path class="cls-4" d="M53.5,209.62c-.16.18-.33.33-.53.43-.02-.12-.04-.25-.06-.37.18-.05.38-.07.58-.06Z"/>
    <path class="cls-8" d="M55.03,52.44c.22-.83.66-1.42,1.11-2.15-.8.31-1.45,1.3-1.11,2.15ZM54.06,55.37c-.54-.19-1.17-1.97-1.12-2.98,1.68-1.37,2.61-3.37,2.65-5.75.92-.13,1.74-.23,2.51-.28l.09,9.83c-1.16.04-2.22-.72-2.84-1.65l-1.35-2.02.65,2.21c-.2.45-.42.71-.57.66Z"/>
    <path class="cls-4" d="M53.43,76.64c-.13-.33-.27-.65-.4-.98,1.77.79,3.65,1.27,5.32,1.36v.74c-1.54-.07-3.27-.47-4.92-1.12Z"/>
    <path class="cls-4" d="M53.03,75.66c.13.33.27.65.4.98-.32-.13-.64-.26-.96-.41l.31-.68c.08.04.16.07.25.11Z"/>
    <path class="cls-4" d="M53,196.45v.1c-.25-.01-.5-.03-.74-.04v-.03l.74-.02Z"/>
    <path class="cls-4" d="M52.98,210.04c-.26.14-.55.2-.87.2.18-.1.35-.22.52-.35-.15.09-.3.16-.46.23.22-.22.47-.37.75-.44.02.12.04.24.06.37Z"/>
    <path class="cls-4" d="M53.82,56.08c-.86-.29-1.48-1.91-1.6-3.17.25-.16.5-.34.72-.52-.04,1.02.58,2.8,1.12,2.98.16.06.37-.2.57-.66l-.65-2.21,1.35,2.02c.62.93,1.68,1.7,2.84,1.65v.74s-.06,0-.1,0c-.95,0-1.83-.42-2.52-1.02l-.14-.02c-.15-.02-.29-.16-.41-.32-.42.6-.86.63-1.2.51Z"/>
    <path class="cls-3" d="M54.29,101.06c-.48.28-1.16.28-1.64,0-.29-.17-.64-.51-.63-1.19,0-.67.34-1.01.63-1.18.24-.14.53-.21.82-.21s.58.07.82.21c.29.17.64.51.63,1.18h0c.01.68-.34,1.02-.63,1.19Z"/>
    <path class="cls-4" d="M52.21,75.63c-.36-.87-.73-1.77-1.1-2.65.31.09.61.18.92.27.3.7.58,1.41.87,2.1.04.1.09.21.13.31-.08-.03-.16-.07-.25-.11l-.31.68h-.01c-.09-.2-.17-.4-.25-.6Z"/>
    <path class="cls-4" d="M52.39,72.36c-.95-.67-1.71-1.52-2.28-2.54.95.67,1.72,1.52,2.28,2.54Z"/>
    <path class="cls-4" d="M52.27,51.83l.72.21c-.03.1-.05.22-.05.35-.22.19-.47.36-.72.52-.04-.42-.03-.8.06-1.08Z"/>
    <path class="cls-4" d="M52.17,210.11c.16-.06.31-.14.46-.23-.16.13-.34.25-.52.35-.02,0-.04,0-.06,0,.04-.04.08-.09.12-.12Z"/>
    <path class="cls-4" d="M51.61,207.15l.05-.69.28.02c1.03.34,1.58.98,1.58,1.8.04.44.1.88.16,1.31l-.16.02c-.2-.01-.4.01-.58.06-.06-.44-.12-.89-.16-1.35v-.02s0-.02,0-.02c.01-.52-.39-.91-1.2-1.14h.05Z"/>
    <path class="cls-4" d="M51.2,206.37c.04-.21.14-.45.24-.72.35-.9.93-2.41.82-4.56-.02-.48-.01-1.52,0-2.53,0-.85.01-1.65,0-2.05.25.01.5.03.74.04.01.43,0,1.2,0,2.02,0,1-.01,2.03,0,2.49.13,2.31-.5,3.91-.86,4.86-.08.2-.16.42-.2.56l-.28-.02v-.06s-.46-.03-.46-.03Z"/>
    <path class="cls-4" d="M51.66,72.36c.13.29.25.59.37.88-.31-.09-.61-.18-.92-.27l-.2-.47.51-.22c.08.03.16.05.24.07Z"/>
    <path class="cls-4" d="M51.66,72.36c-.08-.03-.16-.05-.24-.07l.18-.07s.04.1.06.15Z"/>
    <path class="cls-4" d="M52.65,98.69c-.29.17-.64.51-.63,1.18,0,.68.34,1.02.63,1.19.48.28,1.16.28,1.64,0,.29-.17.64-.51.63-1.18h0c.01-.68-.34-1.02-.63-1.2-.24-.14-.53-.21-.82-.21s-.58.07-.82.21ZM51.69,99.17c-.09-.02-.19-.05-.28-.1.16-.43.45-.78.87-1.03.72-.42,1.68-.42,2.4,0,.66.38,1.01,1.03,1,1.83,0,.23-.03.46-.09.66-.14.5-.45.9-.91,1.17-.36.21-.78.31-1.2.31s-.84-.1-1.2-.31c-.66-.38-1.01-1.04-1-1.84,0-.15,0-.3.03-.44.1.04.2.08.3.1l.08-.37Z"/>
    <path class="cls-4" d="M51.29,206.98l-.12-.4c0-.06.01-.13.03-.2l.46.03v.06s-.05.69-.05.69h-.05s-.02,0-.03-.01l-.07-.03c-.07-.04-.13-.08-.18-.13Z"/>
    <path class="cls-4" d="M51.56,207.15l-.61-.04c.12-.03.23-.06.35-.1v-.03s.09.09.17.13l.07.03s.02,0,.03,0Z"/>
    <path class="cls-4" d="M51.61,99.53c-.1-.02-.2-.06-.3-.1.02-.13.05-.25.1-.37.09.05.19.08.28.1l-.08.37Z"/>
    <path class="cls-4" d="M51.35,46.38h-.01s0,0,0,0c0,0,.01,0,.02,0Z"/>
    <path class="cls-4" d="M51.2,206.37c-.02.07-.03.14-.03.2l-.06-.21h.09Z"/>
    <path class="cls-4" d="M51.17,206.58l.12.4c-.1-.11-.13-.24-.12-.4Z"/>
    <path class="cls-4" d="M50.89,207.1l.05-.74h.16s.06.22.06.22c-.01.16.02.29.12.4v.03c-.11.03-.22.07-.34.1h-.06Z"/>
    <path class="cls-4" d="M51.02,46.31c-.07-.01-.15-.03-.22-.04.16-.1.33-.09.48,0l-.26.04Z"/>
    <path class="cls-4" d="M51.02,46.31l-.34.06s.08-.07.12-.1c.07.01.15.03.22.04Z"/>
    <path class="cls-4" d="M50.99,46.93l-.02.03s-.03-.03-.01-.03c.01,0,.02,0,.03,0Z"/>
    <path class="cls-4" d="M51.31,99.43c-1.13-.5-2.18-2.34-2.4-2.75.12-.04.23-.09.34-.15.23.42,1.19,2.07,2.15,2.53-.04.12-.07.24-.1.37Z"/>
    <path class="cls-4" d="M50.58,46.38h.1s-.01,0-.02,0c-.03.02-.06,0-.08,0Z"/>
    <path class="cls-4" d="M51.15,46.34l-.57.09c-.01-.07-.03-.13-.05-.2.09.01.18.03.26.04-.04.02-.08.06-.12.1h-.1s.04.04.08.02c0,0,.01-.01.02-.02l.34-.06s.09.01.13.03Z"/>
    <path class="cls-4" d="M49.45,44.64c.63.31.91.93,1.09,1.59-1.36-.2-2.74-.17-4.11.01.41-1.18,1.84-2.05,3.02-1.61Z"/>
    <path class="cls-4" d="M50.37,25.38l.04.06c-.74.57-2.07,1.2-3.69,1.74,1.18-.66,2.4-1.25,3.65-1.8Z"/>
    <path class="cls-3" d="M47.9,85.3c.1-2.65.36-5.21.61-7.71,0-.06.01-.12.02-.19.17-1.68.34-3.41.46-5.15.7.26,1.41.5,2.13.72.37.88.74,1.78,1.1,2.65.08.2.16.4.25.6,1.61,3.93,3.32,7.95,5.99,11.48l.02,2.26c-2.17-.45-3.55-2.91-4.89-5.29-.55-.99-1.08-1.92-1.64-2.67l-.25-.34-3.78,3.63Z"/>
    <path class="cls-4" d="M46.36,26.53c3.62-2.01,7.63-3.45,11.52-4.75v.78c-2.5.84-5.05,1.74-7.51,2.82l-.41-.54c-.73.56-2.03,1.17-3.6,1.68Z"/>
    <path class="cls-3" d="M48.97,93.02c.35.2.76.61.75,1.4h0c.01.8-.4,1.21-.75,1.42-.57.33-1.37.33-1.94,0-.35-.2-.76-.61-.75-1.42-.01-.79.4-1.2.75-1.4.29-.17.63-.25.97-.25s.69.09.97.25Z"/>
    <path class="cls-4" d="M49.07,71.49c.77.29,1.55.56,2.35.8l-.51.22.2.47c-.72-.22-1.43-.46-2.13-.72.02-.22.03-.43.04-.65l.04-.12Z"/>
    <path class="cls-4" d="M49.2,96.44s.02.04.06.1c-.11.06-.22.11-.34.15-.02-.04-.04-.07-.04-.08l.33-.17Z"/>
    <path class="cls-4" d="M49.03,71.61c-.01.22-.03.43-.04.65-.24-.09-.48-.18-.73-.28.01-.14.02-.27.03-.41l.74.04Z"/>
    <path class="cls-2" d="M33.88,106.02c-.11-.57.81-6.24,3.52-10.9,2.56-4.41,2.91-18.11,1.07-21.32-.03-.06-.06-.11-.1-.16.2-.03.32-.03.32-.03l7.21-2.32.55-.13c.59.29,1.19.56,1.8.81-.08,1.21-.18,2.41-.3,3.6-.8-.11-1.53.19-2.06.86-.74.94-.95,2.42-.5,3.53.24.58.64,1.01,1.16,1.23-.28.93-1.16,4.16-.54,5.7-.35.04-.68.16-.98.33-.74.43-1.14,1.17-1.12,2.06-.01.91.38,1.64,1.12,2.07.4.23.88.35,1.35.35.07,0,.15,0,.22,0l.21.58c-.06.03-.11.06-.17.09-.73.43-1.13,1.16-1.12,2.05-.01.9.38,1.63,1.12,2.06.41.24.88.35,1.35.35.31,0,.62-.05.91-.15.22.41,1.27,2.25,2.4,2.75-.03.14-.04.29-.03.44-.01.8.34,1.45,1,1.84.36.21.78.31,1.2.31s.84-.1,1.2-.31c.46-.27.77-.67.91-1.17h0l-.06.37.9.14c0,.86.62,1.7,1.26,2.07.25.15.5.22.72.22.06,0,.12,0,.18-.02l.09,10.34-4.82.24c-.31-.32-.74-.52-1.21-.52h-.01c-9.29.09-14.55-1.73-15.76-2.21,0-.33-.16-.66-.46-.85-.95-.6-2.13-3.27-2.53-4.32h0Z"/>
    <path class="cls-4" d="M52.25,47.34c-2.48-.72-5.07-.58-7.64-.34,0-.14,0-.28,0-.42.59-.13,1.19-.25,1.79-.33,0,.03-.01.07-.01.1.01-.03.02-.07.03-.1,1.37-.19,2.75-.22,4.11-.01.02.07.04.13.05.2l.57-.09c.06.01.12.02.18.04,0,0,0,.01,0,.02l-.34.54s-.02,0-.03,0c-.01,0,0,.01.01.03l.02-.03c.08,0,.14,0,.24-.06.17-.12.17-.32.1-.48h.01s-.01-.02-.02-.02c-.01-.02-.02-.04-.03-.06l-.14.02s-.09-.02-.13-.03l.26-.04c.09.05.18.13.25.23l.53.62.19.22Z"/>
    <path class="cls-4" d="M48.49,77.4c.13-1.58-.17-1.78-.48-1.82-.02,0-.04,0-.06,0,.12-1.19.22-2.4.3-3.6.24.1.48.19.73.28-.12,1.74-.29,3.47-.46,5.15h-.03Z"/>
    <path class="cls-4" d="M48.28,71.56c0,.14-.01.27-.03.41-.61-.25-1.21-.51-1.8-.81l.32-.08-.17-.68c.8.4,1.62.76,2.46,1.08l-.04.12-.74-.04Z"/>
    <path class="cls-3" d="M48.12,89.29c.01.8-.41,1.21-.75,1.42-.58.34-1.38.34-1.96,0-.35-.2-.77-.61-.75-1.43-.01-.8.4-1.21.75-1.42.29-.17.63-.25.98-.25s.69.09.98.25c.35.2.76.61.75,1.42h0Z"/>
    <path class="cls-2" d="M44.61,46.58c.13-2.1,1.86-4.01,3.89-4.27,2.49-.28,3.31,2.77,3.63,4.73l-.08.07-.53-.62c-.07-.1-.16-.18-.25-.23h0c-.19-.72-.53-1.5-1.18-1.96-1.44-.95-3.53.33-3.7,1.94-.6.08-1.2.2-1.79.33Z"/>
    <path class="cls-4" d="M58.23,62.49c-3.68.26-7.48-.7-10.59-2.66.01,0,.03-.02.04-.03,3.45,1.15,6.95,1.96,10.54,2.38v.31Z"/>
    <path class="cls-4" d="M47.12,86.19c.04-1.65.15-3.26.28-4.84.27-.1.64-.63.98-3.04.05-.34.08-.64.1-.91h.03c0,.07-.01.13-.02.19-.25,2.49-.51,5.06-.61,7.71l3.78-3.63.25.34c.57.76,1.09,1.69,1.64,2.67,1.34,2.38,2.72,4.84,4.89,5.29v.76c-2.6-.43-4.15-3.21-5.54-5.68-.46-.82-.89-1.59-1.34-2.25l-4.37,4.19s-.07-.02-.1-.03v-.77Z"/>
    <path class="cls-2" d="M49.35,92.38c-.64-.38-1.47-.45-2.18-.22l-.18-.51c.27-.06.53-.15.76-.29.74-.43,1.14-1.16,1.12-2.06.01-.91-.39-1.64-1.12-2.07-.17-.1-.35-.18-.53-.23l4.37-4.19c.45.65.89,1.43,1.34,2.25,1.39,2.48,2.94,5.25,5.55,5.68l.07,7.73c-.55.04-1.06.3-1.45.73-.38.41-.6.94-.64,1.49l-.86-.13h0c.06-.2.09-.43.09-.66.01-.8-.34-1.45-1-1.83-.72-.42-1.68-.42-2.4,0-.42.25-.71.6-.87,1.03-.96-.46-1.92-2.11-2.15-2.53.03-.01.06-.03.1-.05.73-.42,1.13-1.15,1.12-2.05.01-.9-.39-1.63-1.12-2.06Z"/>
    <path class="cls-3" d="M46.48,76.9c.23-.28.6-.6,1.16-.6.03,0,.07,0,.11,0,.16.72-.32,3.59-.64,4.29-.58-.14-.88-.57-1.02-.92-.35-.85-.18-2.07.39-2.78Z"/>
    <path class="cls-4" d="M47.69,59.8s-.03.02-.04.03c-.05-.03-.1-.06-.15-.09.06.02.13.04.19.06Z"/>
    <path class="cls-4" d="M47.49,59.74s.1.06.15.09c-.31.22-.64.41-.98.56l-.09-.3-.31.11c1.27-.55,2.36-1.48,3.01-2.75.26-.45.46-.97.66-1.45-.2,1.56-1.04,2.92-2.23,3.79-.06-.02-.13-.04-.19-.06Z"/>
    <path class="cls-4" d="M49.45,44.64c-1.18-.44-2.61.43-3.02,1.61,0,0-.01,0-.02,0,.16-1.61,2.26-2.88,3.7-1.94.66.45.99,1.24,1.18,1.96h0c-.15-.09-.32-.09-.48,0-.09-.01-.18-.03-.26-.04-.18-.66-.46-1.28-1.09-1.59Z"/>
    <path class="cls-4" d="M47.4,81.35c.11-1.3.23-2.57.36-3.83.07-.64.13-1.29.19-1.94.02,0,.04,0,.06,0,.31.04.61.24.48,1.82-.02.26-.06.56-.1.91-.34,2.41-.72,2.94-.98,3.04Z"/>
    <path class="cls-4" d="M47.17,92.15l.12.33-.35.12-.11-.32c.11-.05.23-.1.35-.13Z"/>
    <path class="cls-4" d="M47.21,86.99l-.11.1v-.13s.07.02.11.03Z"/>
    <path class="cls-4" d="M46.98,91.65l.18.51c-.12.04-.23.08-.35.13l-.21-.58c.12-.01.25-.03.37-.06Z"/>
    <path class="cls-2" d="M46.41,86.87c-.6-1.2.09-4.18.5-5.56.09.02.18.04.28.05.03,0,.06,0,.09,0,.04,0,.08,0,.12-.02-.13,1.58-.24,3.2-.28,4.84v.77c-.24-.06-.48-.09-.71-.09Z"/>
    <path class="cls-4" d="M46.66,60.39l1.99,6.39-2.32-6.26c.11-.04.22-.08.33-.13Z"/>
    <path class="cls-4" d="M46.86,91.3l.12.35c-.12.03-.25.04-.37.06l-.1-.28.35-.13Z"/>
    <path class="cls-4" d="M46.61,70.41l.17.68-.32.08c-.33-.16-.66-.33-.98-.51l.23-.07.84-.2s.04.03.06.03Z"/>
    <path class="cls-4" d="M46.56,210.77s.1-.07.16-.1c-.04.03-.08.07-.12.11-.01,0-.03,0-.04,0Z"/>
    <path class="cls-4" d="M46.57,60.09l.09.3c-.11.05-.22.09-.33.13l-.12-.31s.03-.01.04-.01l.31-.11Z"/>
    <path class="cls-4" d="M46.91,81.31c-.12-.03-.24-.07-.35-.12.04-.14.07-.23.08-.25l.35.12c-.03.08-.05.16-.08.26Z"/>
    <path class="cls-4" d="M46.6,70.36v.04s-.03-.02-.05-.03h.05Z"/>
    <path class="cls-4" d="M46.54,87.07l-.29.23c-.09-.12-.17-.25-.23-.41.13-.02.26-.03.39-.03.04.07.08.14.13.2Z"/>
    <path class="cls-4" d="M46.4,46.25s.01,0,.02,0c-.01.03-.02.07-.03.1,0-.03,0-.07.01-.1Z"/>
    <path class="cls-4" d="M46.02,86.9c-.62-1.55.26-4.77.54-5.7.11.05.23.09.35.12-.42,1.38-1.11,4.36-.5,5.56-.13,0-.26,0-.39.03Z"/>
    <path class="cls-4" d="M44.07,27.9c.74-.49,1.51-.95,2.29-1.38h0c1.57-.51,2.86-1.12,3.6-1.68l.41.54c-1.25.55-2.47,1.14-3.65,1.8-.82.28-1.72.53-2.65.72Z"/>
    <path class="cls-4" d="M46.22,60.21l.12.31c-.81.29-1.71.39-2.63.24.86-.03,1.72-.21,2.51-.55Z"/>
    <path class="cls-4" d="M46.25,60.2s-.02.01-.04.01h0s.04-.01.04-.01Z"/>
    <path class="cls-4" d="M46.09,79.68c.15.35.44.78,1.02.92.32-.7.8-3.58.64-4.29-.04,0-.07,0-.11,0-.56,0-.93.31-1.16.6-.57.72-.74,1.94-.39,2.78ZM47.96,75.58c-.06.65-.13,1.3-.19,1.94-.13,1.26-.25,2.53-.36,3.83-.04.02-.08.02-.12.02-.03,0-.06,0-.09,0-.1-.01-.19-.03-.28-.05.03-.09.05-.18.08-.26l-.35-.12s-.04.11-.08.25c-.52-.22-.92-.64-1.16-1.23-.45-1.11-.25-2.59.5-3.53.53-.67,1.26-.97,2.06-.86Z"/>
    <path class="cls-4" d="M46.28,94.42c-.01.8.4,1.21.75,1.42.57.33,1.37.33,1.94,0,.35-.2.76-.61.75-1.41h0c.01-.8-.4-1.21-.75-1.42-.29-.17-.63-.25-.97-.25s-.69.09-.97.25c-.35.2-.76.61-.75,1.4ZM47.17,92.15c.72-.23,1.54-.15,2.18.22.73.43,1.13,1.16,1.12,2.06.01.9-.39,1.63-1.12,2.05-.03.02-.06.04-.1.05-.03-.06-.06-.1-.06-.1l-.33.17s.02.04.04.08c-.29.1-.6.15-.91.15-.47,0-.94-.12-1.35-.35-.73-.43-1.13-1.16-1.12-2.06-.01-.89.38-1.62,1.12-2.05.06-.03.11-.06.17-.09l.11.32.35-.12-.12-.33Z"/>
    <path class="cls-4" d="M44.84,120.51s.06.04.07.08c-.1-.12-.26.08-.44.42-.06-.02-.13-.04-.19-.06.21-.26.44-.49.56-.45Z"/>
    <path class="cls-4" d="M44.91,120.59s-.04-.07-.07-.08l.03-.12c2.47.74,4.99,1.17,6.86,1.01,1.26-.11,1.98-.48,2.16-1.1l.29.1v.74h.09c-.39.48-1.13.88-2.48.99-.25.02-.53.03-.8.03-1.83,0-4.18-.44-6.51-1.16.18-.34.34-.55.44-.42Z"/>
    <path class="cls-4" d="M44.51,46.61c-.47-2.62,2.19-5.5,4.92-4.98,2.34.56,2.9,3.36,2.71,5.42-.32-1.97-1.14-5.01-3.63-4.73-2.03.25-3.77,2.17-3.89,4.27-.04,0-.07.01-.11.03Z"/>
    <path class="cls-4" d="M44.61,47.01v.04s-.01-.03-.01-.04h.01Z"/>
    <path class="cls-4" d="M44.61,46.58c0,.14,0,.28,0,.42h-.01c-.04-.13-.07-.26-.1-.4.03-.01.07-.02.11-.03Z"/>
    <path class="cls-4" d="M44.51,46.61c.02.13.05.27.1.4-.81.08-1.62.17-2.42.25.76-.25,1.53-.47,2.32-.65Z"/>
    <path class="cls-4" d="M44.66,89.28c-.01.81.4,1.22.75,1.43.57.34,1.38.34,1.96,0,.35-.2.76-.61.75-1.42h0c.01-.81-.41-1.22-.75-1.43-.29-.17-.63-.25-.98-.25s-.69.09-.98.25c-.35.2-.77.61-.75,1.42ZM46.39,91.71c-.47,0-.95-.12-1.35-.35-.74-.43-1.14-1.17-1.12-2.07-.01-.89.38-1.63,1.12-2.06.3-.17.63-.28.98-.33.06.15.13.29.23.41l.29-.23c-.05-.06-.09-.13-.13-.2.23,0,.47.03.7.09v.13s.1-.1.1-.1c.19.06.37.13.53.23.74.43,1.14,1.16,1.12,2.07.01.9-.39,1.63-1.12,2.06-.23.14-.49.23-.76.29l-.12-.35-.35.13.1.28c-.07,0-.15,0-.22,0Z"/>
    <path class="cls-4" d="M43.86,213.85l-.19.04s.05-.04.07-.07c.04.01.08.02.12.03Z"/>
    <path class="cls-8" d="M49.43,41.63c-2.73-.52-5.39,2.36-4.92,4.98-.79.18-1.56.4-2.32.65.8-.08,1.61-.17,2.42-.25,0,.01,0,.03.01.04v-.04c2.56-.25,5.16-.38,7.64.34l-.19-.22.08-.07c.19-2.06-.37-4.86-2.71-5.42ZM43.6,52.1c-2.02-1.18-3.11-3.22-3.08-5.77-.01-.8.09-1.56.3-2.25.45-1.49,1.4-2.69,2.78-3.49,1.16-.68,2.53-1.02,3.89-1.02s2.73.34,3.89,1.02c1.37.8,2.31,1.99,2.77,3.46.19.6.29,1.25.31,1.94,0,.11,0,.23,0,.35v.02c.03,2.21-.8,4.05-2.37,5.27-.22.17-.46.33-.72.48-2.33,1.36-5.46,1.36-7.79,0Z"/>
    <path class="cls-4" d="M41.63,132.22c-.47-3.64.34-7.48,2.21-10.64.05-.08.24-.37.45-.62.07.02.13.04.19.06-.36.7-.77,1.98-.85,2.17-.99,2.94-1.58,5.96-2,9.03Z"/>
    <path class="cls-4" d="M42.51,36.62c.04.25.1.49.17.74l-.56-.06c.12-.23.25-.45.39-.67Z"/>
    <path class="cls-4" d="M42.07,205.84l.33-.6.26.07-.18.72h-.04c-.21-.11-.34-.18-.37-.19Z"/>
    <path class="cls-4" d="M42.09,37.51c-1-4.03,2.34-7.46,5.74-9.02-2.95,1.56-5.89,4.63-5.32,8.13-.14.22-.27.44-.39.67l.56.06c-.07-.25-.13-.49-.17-.74.31-.5.67-.97,1.08-1.4,1.17-1.22,2.59-2.16,4.1-2.88.76-.36,1.52-.67,2.37-.92l.27,1.08c-3.26.83-6.5,2.64-8.07,5.73l-.16-.73Z"/>
    <path class="cls-4" d="M42.43,205.19s4.42,2.38,8.65,1.11l.02.07h-.16s-.05.73-.05.73h.06c-.87.23-1.74.32-2.57.32-2.73,0-5.07-.98-5.95-1.4h.04s.18-.71.18-.71l-.26-.07.03-.06Z"/>
    <path class="cls-3" d="M41.47,206.01c.15,0,.28-.05.4-.13l.56.14c.88.42,3.22,1.4,5.95,1.4.83,0,1.7-.09,2.57-.32l.61.04c.81.23,1.21.62,1.2,1.14v.04c.04.46.1.91.16,1.35-.28.07-.53.22-.75.44-3.32,1.42-9.33-1.03-12.45-2.23l-.12-.05c.06-.16.09-.3.08-.42l.02-.07c.22-1.43.37-1.4.82-1.34.26.04.57.08.96.01Z"/>
    <path class="cls-8" d="M41.53,195.37c3.47.52,7.11.9,10.73,1.14.01.4,0,1.2,0,2.05,0,1.01-.01,2.05,0,2.53.12,2.16-.47,3.67-.82,4.56-.1.26-.2.51-.24.72h-.09s-.02-.08-.02-.08c-4.23,1.27-8.61-1.09-8.65-1.11l-.03.06-.15-.04c0-.08-.01-.17-.04-.25-.57-2.07-.63-6.21-.66-8.43,0-.51-.01-.88-.02-1.16Z"/>
    <path class="cls-4" d="M42.04,205.15l.2.05c0,.17-.06.34-.16.48-.06.08-.13.15-.21.2h-.02s.19-.73.19-.73Z"/>
    <path class="cls-4" d="M42.44,206.02l-.56-.14c.08-.05.15-.12.21-.2.1-.14.16-.31.16-.48l.15.04-.33.6s.15.09.37.18Z"/>
    <path class="cls-4" d="M41.51,194.59c5.74.88,11.98,1.38,17.86,1.45v.74c-2.08-.03-4.22-.1-6.37-.23v-.1l-.74.02v.03c-3.62-.24-7.26-.62-10.73-1.14,0-.31-.02-.5-.04-.6l.03-.18Z"/>
    <path class="cls-4" d="M41.49,194.77c.02.1.03.28.04.6-.25-.04-.5-.08-.75-.12,0-.16-.01-.28-.02-.32l.73-.16Z"/>
    <path class="cls-4" d="M43.61,40.59c-1.38.8-2.33,2.01-2.78,3.49l-.07-.02-.99-.36c.53-1.73,1.65-3.14,3.27-4.09,2.67-1.55,6.25-1.55,8.91,0,1.49.87,2.56,2.14,3.14,3.69-.2.05-.4.11-.6.17l.13.42-.46.14c-.46-1.47-1.4-2.66-2.77-3.46-1.16-.68-2.53-1.02-3.89-1.02s-2.73.34-3.89,1.02Z"/>
    <path class="cls-4" d="M40.38,45.12l-.86-.31c.06-.38.14-.74.25-1.1l.99.36-.38,1.05Z"/>
    <path class="cls-4" d="M39.44,208.55l.45-.16c-.06.1-.12.19-.18.28-.1-.04-.19-.08-.28-.12Z"/>
    <path class="cls-4" d="M39.52,44.81l-2.74-.99c.05-.37.1-.75.15-1.13l2.84,1.02c-.11.35-.19.72-.25,1.1Z"/>
    <path class="cls-4" d="M39.41,46.34c0-.53.03-1.04.11-1.53l.86.31.38-1.05.07.02c-.21.69-.31,1.45-.3,2.25-.04,2.54,1.06,4.59,3.08,5.77,2.33,1.36,5.46,1.36,7.79,0,.25-.15.49-.31.72-.48l.17.2c-.08.28-.1.66-.06,1.08-.09.05-.18.11-.26.16-1.33.78-2.89,1.17-4.46,1.17s-3.12-.39-4.46-1.17c-2.38-1.39-3.68-3.78-3.63-6.73Z"/>
    <path class="cls-4" d="M40.01,33.21c-.36.58-.73,1.18-1.14,1.76,0-.02,0-.03,0-.05l-.74-.03-.08-.06c.48-.64.91-1.33,1.33-2.01,1-1.62,2.04-3.3,3.87-4.35.27-.19.55-.38.83-.57.93-.2,1.83-.45,2.65-.72-1.06.58-2.09,1.22-3.08,1.92-1.69.96-2.64,2.49-3.63,4.11Z"/>
    <path class="cls-4" d="M38.74,118.63s.08.04.12.07c0,.05-.02.11-.04.17-.02-.08-.05-.17-.08-.24Z"/>
    <path class="cls-4" d="M38.87,34.97c-.06,1.25-.58,2.83-1.42,4.47.04-.2.07-.39.1-.55l-.6-.11c.46-.95.8-1.87.99-2.66h0c.14-.15.27-.29.4-.45.18-.23.36-.46.53-.7Z"/>
    <path class="cls-4" d="M38.67,118.54s.05.04.08.09c-.03-.02-.07-.04-.1-.06,0-.01.01-.02.02-.03Z"/>
    <path class="cls-4" d="M38.65,118.57c-.09-.05-.19-.1-.28-.16.3-.2.53-.06.49.28-.04-.02-.08-.04-.12-.07-.03-.05-.05-.08-.08-.09,0,.01-.01.02-.02.03Z"/>
    <path class="cls-4" d="M37.94,36.11c.11-.45.18-.86.19-1.22l.74.03s0,.03,0,.05c-.17.24-.35.47-.53.7-.13.15-.26.3-.4.44Z"/>
    <path class="cls-4" d="M37.6,73.04c.52-.12.89-.15,1.04-.16l6.84-2.22c.32.18.65.35.98.51l-.55.13-7.21,2.32s-.12,0-.32.03c-.23-.34-.49-.55-.78-.61Z"/>
    <path class="cls-4" d="M38.25,59.23c-.01.11-.02.23-.03.34-.01-.13-.03-.25-.04-.38.02,0,.05.02.07.04Z"/>
    <path class="cls-4" d="M37.05,124.48c-.39-2-.17-4.35,1.18-5.95.05-.04.09-.08.14-.11.09.05.18.1.28.16-.48.7-.62,1.71-.84,2.56-.23,1-.47,2.37-.76,3.35Z"/>
    <path class="cls-4" d="M38.2,52.44c.25,2.26.27,4.52.05,6.78-.02-.01-.05-.03-.07-.04-.23-2.25-.22-4.5.02-6.75Z"/>
    <path class="cls-4" d="M38.38,73.65c-.2.03-.49.08-.83.18,0,0,0,0,0,0-.06-.05-.12-.07-.18-.07v-.65c.08-.02.16-.04.23-.06.29.07.55.28.78.61Z"/>
    <path class="cls-4" d="M37.37,73.01c.08,0,.16,0,.23.03-.07.02-.15.04-.23.06v-.09Z"/>
    <path class="cls-4" d="M52.63,114.13c-9.41.09-14.67-1.71-16.01-2.24l.02-.04.13-.28c.06-.13.09-.26.09-.38,1.21.48,6.48,2.29,15.76,2.21h.01c.47,0,.91.2,1.21.52l-.34.02.04.74h-.06c-.15-.32-.47-.54-.86-.54Z"/>
    <path class="cls-4" d="M36.81,38.75l.13.02c-.07.15-.14.29-.22.44.04-.22.07-.38.09-.46Z"/>
    <path class="cls-4" d="M36.62,42.58l.31.11c-.05.38-.1.76-.15,1.13l-.54-.19.38-1.05Z"/>
    <path class="cls-7" d="M43.74,213.83c-2.53-.54-5.17-1.19-7.76-1.26.28-.24.56-.49.84-.74,1.05-.99,2.09-1.94,2.89-3.17,1.77.73,4.34,1.68,6.84,2.1-.57.4-1,1.01-1.48,1.52-.44.48-.88,1.09-1.34,1.54Z"/>
    <path class="cls-4" d="M37.44,39.44c-.31.6-.66,1.21-1.05,1.82.13-.84.26-1.58.34-2.04.08-.15.15-.29.22-.44l.6.11c-.03.16-.06.35-.1.55Z"/>
    <path class="cls-4" d="M36.86,111.18c0,.13-.03.26-.09.38l-.13.28-.02.04c-.2-.08-.31-.13-.34-.14l.31-.68s.1.04.27.11Z"/>
    <path class="cls-4" d="M36.23,59.11c-.12-.06-.23-.13-.35-.21.03,0,.05-.01.08-.01.09.08.18.15.27.22Z"/>
    <path class="cls-4" d="M36.14,212.71c-.08-.01-.16-.04-.23-.06.03-.02.06-.04.08-.07,2.59.06,5.23.72,7.76,1.26-.03.03-.05.05-.07.07l.19-.04s-.08-.01-.12-.03c.47-.45.91-1.05,1.34-1.54.48-.51.9-1.12,1.48-1.52.01,0,.03,0,.04,0-.09.1-.15.23-.23.34-.3.47-.61.99-.91,1.46-.37.57-.73,1.14-1.17,1.67-.07.09-.21.22-.37.32-.75-.07-1.48-.26-2.22-.41-1.86-.4-3.73-.91-5.57-1.43Z"/>
    <path class="cls-4" d="M38.37,118.42c-1.41-.83-2.49-1.72-2.98-2.59.12-.12.25-.23.38-.34l.2-.17c.77,1.73,4.79,3.84,8.91,5.07l-.03.12c-.12-.04-.35.19-.56.45-1.94-.61-3.85-1.39-5.42-2.26.04-.34-.19-.48-.49-.28Z"/>
    <path class="cls-4" d="M35.77,115.49c-.13.11-.25.22-.38.34-.1-.18-.18-.35-.22-.52l.72-.2c.02.07.05.15.08.22l-.2.17Z"/>
    <path class="cls-3" d="M35.83,114.98c-.39-.53.39-2.23.79-3.09,1.34.53,6.6,2.33,16.01,2.24.39,0,.71.22.86.54.05.11.07.23.08.35.04,1.23.13,3.12.35,5.13,0,.05-.02.1-.03.15-.18.62-.9.99-2.16,1.1-1.87.16-4.38-.27-6.86-1.01-4.12-1.23-8.14-3.34-8.91-5.07l.07-.06-.21-.28Z"/>
    <path class="cls-4" d="M35.91,212.64c-.09-.02-.18-.04-.27-.03.08-.05.18-.04.26-.05.03,0,.06,0,.09,0-.03.03-.06.05-.08.07Z"/>
    <path class="cls-4" d="M35.89,212.57c-.09.01-.18,0-.26.05,1.91-1.78,3.59-3.72,3.97-4.78l.12.05c3.11,1.2,9.13,3.65,12.45,2.23-.04.04-.08.08-.12.12.02,0,.04,0,.06,0-1.45.84-3.45.87-5.51.53.03-.04.07-.08.12-.11-.05.03-.11.07-.16.1-2.5-.42-5.07-1.37-6.84-2.1.06-.09.12-.19.18-.28l-.45.16c.09.04.18.08.28.12-.8,1.23-1.84,2.17-2.89,3.17-.28.25-.56.5-.84.74-.03,0-.06,0-.09,0Z"/>
    <path class="cls-3" d="M35.33,64.34c-.75-.44-1.15-1.22-1.14-2.22-.01-.99.39-1.77,1.14-2.21.39-.23.85-.34,1.31-.34s.92.12,1.31.34c.75.44,1.15,1.22,1.14,2.21h0c.01,1-.39,1.78-1.14,2.22-.78.46-1.83.46-2.61,0Z"/>
    <path class="cls-4" d="M35.76,41.28c-.42.79-1.04,1.45-1.78,1.95.32-.36.63-.74.91-1.12.31-.26.59-.54.86-.83Z"/>
    <path class="cls-4" d="M34.59,18.41c.84.89,1.76,1.68,2.99,1.92.78.19,1.59.19,2.38.18-2.17.7-4.36-.08-5.46-2.05.03-.01.06-.03.08-.04Z"/>
    <path class="cls-4" d="M34.59,18.41s-.06.03-.08.04c-.05-.09-.1-.19-.15-.29.07.08.15.16.23.24Z"/>
    <path class="cls-4" d="M35.26,58.39c-1.8-2.04-1.46-5.81-.31-8.09-.73,2.53-1.15,6.63,1,8.59-.03,0-.05,0-.08.01-.22-.15-.43-.32-.62-.52Z"/>
    <path class="cls-4" d="M35.33,59.91c-.75.44-1.15,1.22-1.14,2.21-.01,1,.39,1.78,1.14,2.22.78.46,1.84.46,2.61,0,.75-.44,1.15-1.22,1.14-2.21h0c.01-1-.39-1.78-1.14-2.22-.39-.23-.85-.34-1.31-.34s-.92.12-1.31.34ZM34.13,61.77c.08-.28.18-.6.23-.95.05-.33-.14-.57-.32-.73.24-.33.55-.6.92-.82.29-.17.6-.29.92-.36.11.08.23.15.35.21-.09-.07-.18-.15-.27-.22.74-.15,1.54-.05,2.22.3.01.13.02.25.04.38.01-.11.02-.23.03-.34.02.01.05.02.07.04.99.58,1.53,1.59,1.51,2.86.01,1.21-.48,2.19-1.39,2.78-1.52.76-3.05-.27-3.68-.8-1.05-.88-.9-1.43-.64-2.33Z"/>
    <path class="cls-7" d="M51.68,224.31c-7.14,4.28-21.76,5.84-26.11,1.67-.1-.41-.17-.81-.23-1.18,1.05.29,5.21,1.35,10.35,1.35,6.19,0,13.79-1.53,19.11-7.79l.11.04.06-.19c.15.11.29.23.38.39.72,2.47-1.59,4.47-3.67,5.71Z"/>
    <path class="cls-4" d="M35.91,212.64c-.77.66-1.56,1.29-2.37,1.89v-.05c.06-.07.13-.15.21-.22.63-.51,1.27-1.07,1.89-1.65.09-.01.18,0,.27.03Z"/>
    <path class="cls-4" d="M35.63,212.62c-.62.58-1.26,1.14-1.89,1.65.92-.93,1.84-1.85,2.73-2.8,1.07-1.15,2.23-2.33,2.95-3.71l.18.07c-.38,1.07-2.06,3-3.97,4.78Z"/>
    <path class="cls-4" d="M32.42,214.6c3.18-2.15,7.04-6.28,6.55-7.4.29-1.82.73-2.06,1.65-1.93.23.03.47.07.74.01h.07s.03,0,.05-.03c0-.01.02-.04.01-.07-.61-2.18-.66-6.22-.69-8.63,0-.5-.01-.98-.03-1.29.25.04.5.08.75.12.01.28.01.65.02,1.16.03,2.22.09,6.36.66,8.43.03.08.04.16.04.25l-.2-.05-.19.72h.02c-.12.09-.26.13-.4.14-.39.07-.7.03-.96-.01-.44-.06-.59-.08-.82,1.34l-.02.07c0,.12-.02.26-.08.42l-.18-.07c-.72,1.38-1.88,2.56-2.95,3.71-.89.95-1.81,1.87-2.73,2.8-.07.06-.15.12-.23.18l-.03-.1-1.07.25Z"/>
    <path class="cls-4" d="M34.13,61.77c-.26.9-.42,1.45.64,2.33.64.53,2.16,1.57,3.68.8-.04.03-.08.05-.13.08-.51.3-1.1.45-1.68.45s-1.17-.15-1.68-.45c-.99-.58-1.53-1.59-1.51-2.86,0-.34.03-.67.11-.97.1-.39.26-.75.49-1.07.18.17.37.41.32.73-.06.35-.15.67-.23.95Z"/>
    <path class="cls-4" d="M34.14,102.31c-.16.13-.32.26-.48.4.01-.07.03-.13.05-.2.14-.08.28-.14.42-.2Z"/>
    <path class="cls-4" d="M33.53,214.48v.05c-.06.06-.14.12-.22.17.07-.07.15-.15.22-.22Z"/>
    <path class="cls-4" d="M33.66,215.07l-1.43.34c.41-.29.85-.61,1.29-.96v.04c-.06.07-.14.15-.21.22.07-.06.15-.11.23-.17l.13.54Z"/>
    <path class="cls-4" d="M33.44,62.12c-.02,1.27.52,2.29,1.51,2.86.51.3,1.1.45,1.68.45s1.17-.15,1.68-.45c.04-.03.09-.05.13-.08.2-.1.41-.23.61-.4l.28-.39.29.41c.12.14.27.32.37.51,1.77,2.36,4.03,4.06,6.54,5.33l-.84.2-.23.07c-2.19-1.21-4.18-2.77-5.81-4.83-.12,0-.26-.06-.42-.19-.07-.07-.14-.14-.19-.22-1.42.86-3.16.6-4.77-.75-1.43-1.19-1.14-2.16-.87-3.11.04-.14.08-.28.12-.42h.03c-.08.31-.11.63-.11.98Z"/>
    <path class="cls-4" d="M33.87,106.02l-.72.15c-.01-.05-.01-.13-.02-.22l.1-.11.41-.43.21.56.02.06Z"/>
    <path class="cls-4" d="M33.13,105.95c0-.53.17-1.72.53-3.24.15-.14.31-.27.48-.4-.15.06-.29.12-.42.2.56-2.25,1.54-5.17,3.04-7.76,2.41-4.15,2.79-17.57,1.07-20.57-.06-.11-.16-.26-.28-.35.34-.1.63-.15.83-.18.03.05.06.1.1.16,1.84,3.2,1.49,16.91-1.07,21.32-2.71,4.66-3.64,10.33-3.52,10.9h0l-.02-.06-.21-.56-.41.43-.1.11Z"/>
    <path class="cls-4" d="M31.15,106.73c.07-1.69,1.04-3.43,2.56-4.22-.02.07-.04.13-.05.2-1.19,1.08-1.97,2.51-2.51,4.02Z"/>
    <path class="cls-4" d="M32.77,22.88c-.08.01-.15.03-.23.04,0-.03,0-.06-.01-.09.08.01.16.03.24.04Z"/>
    <path class="cls-8" d="M52.39,72.36c-.57-1.02-1.33-1.87-2.28-2.54.57,1.01,1.33,1.86,2.28,2.54ZM33.85,59.9c-2.62-2.51-2.85-3.2-3.27-6.87-.04-.39-.18-.73-.39-.99-.04-.04-.07-.09-.11-.12.59-3.36,5.32-4.38,6.02-4.32l.69.4-.18-.83c-.11-.51,0-1.86.19-3.36l2.74.99c-.08.49-.12,1-.11,1.53-.04,2.95,1.25,5.34,3.63,6.73,1.33.78,2.89,1.17,4.46,1.17s3.13-.39,4.46-1.17c.09-.05.18-.11.26-.16.12,1.26.74,2.87,1.6,3.17.33.12.78.09,1.2-.51.12.17.25.3.41.32l.14.02c.69.61,1.57,1.02,2.52,1.02.03,0,.07,0,.1,0l.04,5.26c-3.59-.43-7.1-1.23-10.54-2.38,1.19-.87,2.03-2.23,2.23-3.79-.2.48-.4.99-.66,1.45-.64,1.26-1.73,2.19-3.01,2.75h-.04c-.79.35-1.65.54-2.51.56.92.15,1.81.06,2.63-.24l2.32,6.26-1.99-6.39c.35-.15.68-.34.98-.56,3.1,1.97,6.91,2.93,10.59,2.66l.02,2.07c-.74-.04-1.49.15-2.11.57.74-.07,1.42-.14,2.12-.25l.04,5.34.02,2.15v1.5c-2.19-.39-4.46-.85-6.66-1.5-.02-.05-.04-.1-.06-.15l-.18.07c-.79-.24-1.58-.5-2.35-.8-.84-.32-1.66-.68-2.46-1.08v-.04s-.06.01-.06.01c-2.51-1.27-4.78-2.98-6.54-5.33-.1-.19-.25-.37-.37-.51l-.29-.41-.28.39c-.2.17-.41.31-.61.4.91-.59,1.4-1.57,1.39-2.78.01-1.27-.52-2.28-1.51-2.86-.02-.01-.05-.03-.07-.04.22-2.26.2-4.52-.05-6.78-.23,2.25-.25,4.5-.02,6.75-.68-.35-1.48-.45-2.22-.3-2.15-1.96-1.74-6.06-1-8.59-1.15,2.28-1.49,6.05.31,8.09.19.2.39.37.62.52-.32.07-.64.19-.92.36-.37.22-.68.49-.92.82-.04-.04-.08-.07-.12-.11l-.08-.07Z"/>
    <path class="cls-4" d="M30.46,44.28c1.64-.36,3.17-1.08,4.44-2.16-.29.38-.59.76-.91,1.12-1.03.71-2.29,1.09-3.53,1.04Z"/>
    <path class="cls-4" d="M32.42,214.6c-.16.1-.31.21-.47.3l-.04-.18.51-.12Z"/>
    <path class="cls-4" d="M31.79,23.02c.25-.02.5-.06.74-.1.19,1.58.9,2.77,2.12,3.57,2.87,1.87,8.03,1.23,11.7.03-.78.43-1.55.89-2.29,1.38-1.45.32-2.99.51-4.47.51-2.01,0-3.91-.37-5.35-1.3-1.43-.93-2.25-2.3-2.45-4.09Z"/>
    <path class="cls-4" d="M32.53,22.92c-.25.04-.49.08-.74.1-.01-.1-.03-.19-.03-.29.25.02.51.06.76.1,0,.03,0,.06.01.09Z"/>
    <path class="cls-4" d="M31.96,19.88c.28-.2.57-.38.88-.56-.32,1.32-.43,2.5-.32,3.51-.25-.04-.51-.08-.76-.1-.07-.86,0-1.81.2-2.85Z"/>
    <path class="cls-4" d="M33.52,214.45c-.44.35-.88.67-1.29.96l-.15.03-.13-.54c.16-.09.31-.2.47-.3l1.07-.25.03.1Z"/>
    <path class="cls-4" d="M32.84,19.32c-.31.18-.61.36-.88.56.04-.25.1-.5.16-.75l.73.18s0,.01,0,.02Z"/>
    <path class="cls-4" d="M32.02,18.95c.5-.31,1.03-.58,1.55-.85.8-.41,1.55-.79,2.17-1.29.22-.18.37-.44.44-.75.94-4.52,3.65-8.23,7.63-10.45,4.18-2.33,9.23-2.75,13.94-1.16v.79c-4.57-1.62-9.51-1.24-13.57,1.02-3.78,2.11-6.36,5.65-7.26,9.95-.1.48-.35.9-.7,1.18-.49.39-1.05.72-1.62,1.02-.08-.08-.16-.16-.23-.24.05.1.1.19.15.29-.2.1-.4.21-.6.31-.36.19-.72.37-1.07.56,0,0,0-.01,0-.02l-.73-.18-.1-.18Z"/>
    <path class="cls-7" d="M30.2,22.25c.29-1.08.94-1.8,1.76-2.38-.2,1.04-.27,1.99-.2,2.85-.58-.06-1.17-.06-1.76,0,.09-.15.15-.31.19-.47Z"/>
    <path class="cls-4" d="M31.76,22.73c0,.1.01.19.03.29-.66.07-1.33.07-1.99,0,.07-.09.15-.19.2-.29.58-.05,1.17-.05,1.76,0Z"/>
    <path class="cls-4" d="M29.38,51.54c.47-1.99,2.12-3.16,3.48-3.8.98-.47,2.21-.81,2.95-.87-.06-1.24.28-3.71.58-5.62.39-.6.74-1.21,1.05-1.82-.15.86-.34,2.05-.51,3.25l-.31-.11-.38,1.05.54.19c-.19,1.5-.3,2.84-.19,3.36l.18.83-.69-.4c-.69-.06-5.42.96-6.02,4.32-.21-.21-.45-.32-.69-.38Z"/>
    <path class="cls-4" d="M30.07,51.93s-.01.04-.01.06l-.74-.12c.02-.11.04-.22.07-.33.24.06.47.17.69.38Z"/>
    <path class="cls-4" d="M28.92,22.88c.36-.07.72-.13,1.08-.16-.06.1-.13.2-.2.29-.29-.03-.59-.07-.88-.13Z"/>
    <path class="cls-4" d="M29.4,148.97s.03,0,.02.01c0,.06,0,.12-.01.18.01-.16,0-.2-.02-.16v-.03Z"/>
    <path class="cls-4" d="M29.41,149.16v.09s0-.06,0-.09Z"/>
    <path class="cls-4" d="M29.39,149.36c-.05.33-.1.66-.15.99.05-.34.1-.67.15-.99Z"/>
    <path class="cls-4" d="M29.25,149.41c.05-.18.1-.32.13-.38-.04.12-.09.25-.13.38Z"/>
    <path class="cls-4" d="M29.15,150.93c-.02.15-.04.31-.07.46.02-.15.04-.31.07-.46Z"/>
    <path class="cls-4" d="M29.06,22.71c.21-.17.35-.4.42-.66.41-1.51,1.4-2.41,2.54-3.11l.1.18c-.06.26-.12.51-.16.75-.82.58-1.47,1.3-1.76,2.38-.04.16-.11.32-.19.47-.36.03-.72.08-1.08.16l-.03-.03c.05-.05.11-.09.16-.14Z"/>
    <path class="cls-4" d="M29.08,151.39c-.04.28-.08.55-.12.82.04-.28.08-.55.12-.82Z"/>
    <path class="cls-3" d="M24.95,167.28c1.24-5.47,2.47-10.98,3.89-16.4.03-.1.23-.88.39-1.4,0-.02.01-.04.02-.06.04-.14.09-.26.13-.38,0-.01,0-.02.01-.03.03-.04.04,0,.02.16,0,.03,0,.06-.01.09s0,.07-.01.11c-.05.32-.1.66-.15.99-.03.19-.06.38-.09.57-.03.15-.05.31-.07.46-.04.27-.08.54-.12.82-.01.08-.02.16-.04.25-1.5,9.75-3.21,19.65-5.08,29.28-.49,2.17-.77,4.45-1.59,6.5-.07.07-.15.1-.22.12-.32-.26-.6-.52-.85-.79h0c-.06-.14-.12-.27-.16-.38-.14-.38-.25-.79-.33-1.19,1.46-6.22,2.84-12.47,4.26-18.71Z"/>
    <path class="cls-3" d="M54.27,217.82c-10.05,11.9-28.78,6.24-28.97,6.18l-.05.16c-.51-4.66,1.85-6.78,4.91-7.64.54-.15,1.26-.56,2.07-1.11l1.43-.34-.13-.54c.81-.6,1.6-1.23,2.37-1.89.08.02.16.05.23.06,1.84.52,3.71,1.03,5.57,1.43.73.15,1.47.34,2.22.41.16-.1.3-.23.37-.32.44-.53.8-1.1,1.17-1.67.3-.47.61-.98.91-1.46.08-.11.15-.23.23-.34,2.06.34,4.06.31,5.51-.53.32,0,.61-.06.87-.2.04.3.09.59.13.9.25,1.64.51,3.33.52,5.6,0,.63.34.99.69,1.24l-.02.07-.03-.03Z"/>
    <path class="cls-2" d="M41.51,194.59c-8.07-1.23-15.15-3.2-18.83-5.76,0,0,0,0,.01,0,.43-.42.5-1.05.67-1.58,2.15-9.1,4.01-24.29,5.55-34.79.01-.08.03-.16.04-.25.04-.28.09-.55.12-.82.03-.15.05-.31.07-.46.03-.19.06-.38.09-.57.05-.33.1-.66.15-.99,0-.04.01-.07.01-.11v-.09c.02-.06.02-.12.02-.18,0,0,0-.03-.02-.01v.03s-.02.01-.02.03c-.03.06-.08.21-.13.38,0,.02-.01.04-.02.06-.37,1.12-.74,2.78-1.01,3.73-.76,2.97-2.81,10.94-3.59,14-1.59,6.25-3.19,12.5-4.67,18.77.07.4.16.79.28,1.17-2.21.04-5.81-1.46-7.06-2.98-.34-.41-.47-.77-.4-1.1,7.26-8.76,9.6-22.6,11.87-35.98,2.21-13.03,4.29-25.34,10.75-31.27.49.87,1.57,1.76,2.98,2.59-.04.03-.09.07-.14.11-1.36,1.61-1.58,3.96-1.18,5.95.29-.98.53-2.35.76-3.35.22-.84.35-1.85.84-2.56.03.02.06.04.1.06.03.07.06.16.08.24.02-.06.03-.12.04-.17,1.57.87,3.48,1.65,5.42,2.26-.2.26-.39.54-.45.62-1.87,3.16-2.67,7-2.21,10.64.42-3.07,1.01-6.09,2-9.03.07-.19.49-1.47.85-2.17,2.33.72,4.68,1.16,6.51,1.16.28,0,.55-.01.8-.03,1.35-.11,2.09-.52,2.48-.99l4.46-.09.19,22.55.45,52.43c-5.88-.07-12.12-.58-17.86-1.45Z"/>
    <path class="cls-4" d="M25.25,224.16l.05-.16c.19.06,18.91,5.73,28.97-6.18l.03.03-.1.3.6.2c-5.32,6.25-12.92,7.79-19.11,7.79-5.14,0-9.3-1.06-10.35-1.35-.03-.22-.06-.42-.08-.63Z"/>
    <path class="cls-4" d="M25.25,224.16c.02.2.05.41.08.63-.16-.04-.25-.07-.26-.07l.18-.56Z"/>
    <path class="cls-4" d="M24.86,226.25c-1.57-6.56,1.27-9.72,4.91-10.37.6-.11,1.35-.47,2.18-.98l.13.54.15-.03c-.81.56-1.53.96-2.07,1.11-3.06.86-5.41,2.98-4.91,7.64l-.18.56s.1.03.26.07c.06.38.13.77.23,1.18,4.35,4.17,18.97,2.61,26.11-1.67,2.08-1.24,4.39-3.24,3.67-5.71-.09-.16-.23-.28-.38-.39l.15-.44.19-.23c.27.18.53.4.71.73l.03.07c.71,2.33-.67,4.62-3.99,6.61-4.35,2.61-11.26,4.24-17.19,4.24-4.26,0-8-.84-9.91-2.76l-.07-.07-.03-.1Z"/>
    <path class="cls-7" d="M24.57,35.42c-2.28-5.05,2.13-9.77,4.96-12.13.1-.08.19-.18.27-.27.66.07,1.33.07,1.99,0,.21,1.79,1.03,3.16,2.45,4.09,1.44.94,3.34,1.3,5.35,1.3,1.48,0,3.02-.2,4.47-.51-.28.19-.56.37-.83.57-1.83,1.04-2.86,2.72-3.87,4.35-.41.67-.84,1.37-1.33,2.01-.09.12-.19.25-.28.37-2.17,2.57-5.84,4.13-8.74,3.72-1.86-.26-3.3-1.3-4.21-3.01-.03-.06-.06-.11-.09-.17h.02s-.17-.31-.17-.31Z"/>
    <path class="cls-4" d="M28.92,39.65c-2.14-.31-3.8-1.51-4.82-3.51.07-.05.13-.1.2-.15l.63.2-.13-.29h.01c.91,1.7,2.35,2.74,4.21,3.01,2.9.41,6.57-1.15,8.74-3.72.1-.12.19-.24.28-.37l.08.06c-.01.36-.08.77-.19,1.22h0c-2.1,2.23-5.18,3.61-7.94,3.61-.37,0-.73-.03-1.08-.07Z"/>
    <path class="cls-4" d="M23.9,35.74l.68-.31c.04.1.09.2.14.29.03.06.06.12.09.17h0s-.01,0-.01,0l.13.29-.63-.2c-.07.05-.14.1-.2.15-.07-.13-.13-.26-.19-.4Z"/>
    <path class="cls-4" d="M21.86,37.74c.41-.87,1-1.59,1.76-2.17-.04-.08-.06-.16-.05-.23,0-.08.03-.16.08-.22-1.86-5.16,2.37-9.82,5.25-12.26l.03.03c.29.06.59.1.88.13-.08.1-.17.19-.27.27-2.83,2.36-7.24,7.08-4.96,12.13l.17.29h-.02c-.05-.08-.1-.18-.14-.28l-.68.31c.06.14.13.27.19.4-.8.6-1.33,1.36-1.66,2.15-.12-.15-.23-.29-.34-.44l-.24-.11Z"/>
    <path class="cls-7" d="M27.16,51.32c-1.27-.76-2.45-2.09-3.36-3.67.87.36,1.76.53,2.67.53,1.34,0,2.72-.38,4.09-1.14,2.24-1.24,4.31-3.45,5.82-5.78-.3,1.91-.64,4.38-.58,5.62-.74.06-1.97.41-2.95.87-1.35.64-3.01,1.8-3.48,3.8-.31-.07-.63-.06-.93-.04-.35.02-.72.04-1.08-.08-.06-.02-.13-.06-.21-.1Z"/>
    <path class="cls-4" d="M26.47,48.18c-.91,0-1.81-.18-2.67-.53-.19-.33-.37-.67-.54-1.02l.03-.05c2.16,1.22,4.49,1.15,6.91-.19,1.4-.78,2.68-1.9,3.78-3.15.74-.5,1.36-1.17,1.78-1.95-.27.3-.56.57-.86.83.72-.95,1.33-1.94,1.83-2.9-.08.46-.2,1.2-.34,2.04-1.51,2.32-3.58,4.53-5.82,5.78-1.37.76-2.75,1.14-4.09,1.14Z"/>
    <path class="cls-4" d="M23.26,46.63c.16.35.34.69.54,1.02-.29-.12-.58-.26-.87-.42l.34-.6Z"/>
    <path class="cls-7" d="M21.92,41.24c-.01-.83.08-1.81.44-2.74.65,1.33,2.03,2.54,3.53,2.03-1.53.01-2.58-1.11-3.45-2.25.33-.79.85-1.54,1.66-2.15,1.02,1.99,2.68,3.2,4.82,3.51.35.05.72.07,1.08.07,2.76,0,5.83-1.38,7.94-3.61-.2.8-.53,1.71-.99,2.66l-.13-.02c-.01.08-.04.24-.09.46-.5.96-1.11,1.95-1.83,2.9-1.27,1.08-2.8,1.8-4.44,2.16,1.24.05,2.5-.34,3.53-1.04-1.1,1.25-2.38,2.37-3.78,3.15-2.42,1.34-4.75,1.41-6.91.19l-.03.05c-.82-1.71-1.32-3.61-1.34-5.38Z"/>
    <path class="cls-4" d="M22.25,188.23c.82-2.05,1.1-4.33,1.59-6.5,1.87-9.63,3.59-19.53,5.08-29.28-1.55,10.5-3.4,25.68-5.55,34.79-.18.53-.24,1.17-.67,1.58,0,0,0,0-.01,0-.23-.16-.45-.32-.65-.48.07-.02.14-.06.22-.12Z"/>
    <path class="cls-4" d="M26.78,51.96c-1.56-.93-2.98-2.65-4-4.66l.15-.08c.29.16.58.3.87.42.91,1.58,2.09,2.91,3.36,3.67.08.05.15.08.21.1.35.12.72.1,1.08.08.3-.01.62-.03.93.04-.03.11-.05.22-.07.33l.74.12s0-.04.01-.06c.04.04.07.08.11.12.21.26.35.6.39.99.42,3.66.66,4.35,3.27,6.87l.08.07s.07.07.12.11c-.23.31-.39.67-.49,1.07h-.03c.04-.15.07-.29.09-.45-.01-.01-.13-.12-.19-.18l-.09-.09c-2.77-2.65-3.07-3.53-3.5-7.32-.02-.17-.08-.42-.23-.6-.25-.31-.56-.31-1.11-.28-.41.02-.87.04-1.36-.12-.12-.04-.23-.09-.35-.17Z"/>
    <path class="cls-4" d="M40.77,195.25c-8.19-1.29-15.36-3.36-18.99-6.14.27.04.57-.03.89-.27,3.68,2.56,10.76,4.53,18.83,5.76l-.03.18-.73.16s.01.16.02.32Z"/>
    <path class="cls-4" d="M22.44,38.29c.88,1.13,1.93,2.26,3.45,2.25-1.5.51-2.89-.7-3.53-2.03.02-.07.05-.14.08-.21Z"/>
    <path class="cls-4" d="M22.35,38.5c-.1-.22-.19-.44-.25-.65.11.15.22.29.34.44-.03.07-.06.14-.08.21Z"/>
    <path class="cls-4" d="M22.03,188.35c-.35.1-.65-.35-.85-.79.25.27.53.53.85.79Z"/>
    <path class="cls-4" d="M21.92,41.24c.02,1.77.53,3.67,1.34,5.38l-.34.6-.15.08c-.97-1.9-1.58-4.06-1.6-6.05-.02-1.33.22-2.51.69-3.51l.24.11c.06.22.15.44.25.65-.35.93-.45,1.91-.44,2.74Z"/>
    <path class="cls-4" d="M21.79,189.11c-.54-.07-.97-.58-1.24-1.14.35.39.76.77,1.24,1.14Z"/>
    <path class="cls-4" d="M20.68,185.92s0,.05.01.07c0,.03-.01.05-.02.08v-.15Z"/>
    <path class="cls-4" d="M20.68,185.92v.15s0-.05.01-.08c.07.4.19.81.33,1.19.04.12.09.25.16.38-.09-.1-.18-.2-.26-.3l-.13-.16-.2.02c-.11.01-.23.02-.36.02-.12-.38-.21-.77-.28-1.17,1.48-6.28,3.08-12.53,4.67-18.77.78-3.06,2.83-11.04,3.59-14,.27-.95.64-2.6,1.01-3.73-.16.53-.36,1.3-.39,1.4-1.41,5.43-2.64,10.94-3.89,16.4-1.42,6.24-2.79,12.49-4.26,18.71,0-.02-.01-.05-.01-.07Z"/>
    <path class="cls-4" d="M20.33,187.44c-.03-.1-.07-.19-.1-.29.12,0,.25-.01.36-.02l.2-.02.13.16c.08.1.17.2.26.3h0c.2.44.49.89.85.79.2.16.42.32.65.48-.32.24-.62.31-.89.27-.48-.36-.9-.74-1.24-1.14-.09-.18-.16-.36-.22-.53Z"/>
    <path class="cls-4" d="M17.12,111.18c1.35-1.42,4.17-.56,5.67.24-1.68-.31-4.03-1.17-5.61-.2-.02-.01-.04-.02-.06-.04Z"/>
    <path class="cls-4" d="M18.17,120.25c.04.12.08.24.12.36-.07-.11-.14-.21-.21-.32l.07-.03h.02Z"/>
    <path class="cls-4" d="M17.17,111.22c-.07.04-.15.09-.21.14.05-.06.1-.12.16-.18.02.01.04.03.06.04Z"/>
    <path class="cls-4" d="M15.72,100.36c1.44-1.02,2.97-1.88,4.59-2.57-1.47,1.12-3.05,2.07-4.73,2.85.05-.09.1-.19.14-.28Z"/>
    <path class="cls-4" d="M15.72,100.36c-.04.09-.09.18-.14.28-.2.1-.41.19-.62.28.25-.19.5-.38.76-.56Z"/>
    <path class="cls-3" d="M18.17,120.25c-1.23-3.5-5.89-5.51-9.4-6.09,1.24-1.09,1.37-2.69,1.43-4.39h.04c2.47-.35,4.9,1.02,6.91,2.32,2.06,1.42,3.81,3.24,4.88,5.55h0s-.05,0-.07,0h-.22s-.11.18-.11.18c-.8,1.33-3.2,2.33-3.45,2.42Z"/>
    <path class="cls-4" d="M12.6,184.64c-.65-.8-.64-1.45-.51-1.85l.02-.07.04-.06c7.17-8.6,9.5-22.38,11.76-35.69,2.24-13.24,4.37-25.76,11.12-31.82l.15.16c.05.17.12.34.22.52-6.46,5.93-8.54,18.24-10.75,31.27-2.27,13.38-4.61,27.22-11.87,35.98-.07.32.06.69.4,1.1,1.24,1.52,4.85,3.02,7.06,2.98.03.1.06.19.1.29.06.17.13.35.22.53-.03-.03-.05-.06-.08-.09-2.42.13-6.44-1.51-7.87-3.24Z"/>
    <path class="cls-4" d="M13.96,133.4c-1.17-.14-2.77-2.61-3.56-3.97l.2-.26c-.04-.31-.04-.63-.02-.94l.05.09c.95,1.75,2.63,4.25,3.43,4.34.06.01.1,0,.15-.06.49-.54.58-1.62.67-2.66.1-1.17.2-2.38.85-3.16,1.07-1.31,2.19-6.21,2.21-6.26l.04-.19.11-.04c.07.1.15.21.21.32-.03-.12-.07-.24-.12-.36.25-.1,2.66-1.1,3.45-2.42l.11-.19h.22s.05,0,.07,0c6.05.19,7.17-2.96,8.48-6.59.64-1.79,1.3-3.64,2.63-5.1,0,.09,0,.17.02.22l.72-.15c.4,1.05,1.58,3.72,2.53,4.32.3.19.47.51.46.85-.18-.07-.26-.11-.27-.11l-.31.68s.14.06.34.14c-.4.86-1.18,2.56-.79,3.09l.21.28-.07.06c-.03-.07-.06-.15-.08-.22l-.72.2-.15-.16s.03-.03.04-.04c-.33-.95.37-2.45.9-3.58l.13-.28c.04-.1,0-.22-.1-.29-1.07-.67-2.15-3.04-2.62-4.16-1.04,1.3-1.62,2.92-2.18,4.5-1.27,3.56-2.6,7.23-9.06,7.09-.91,1.3-2.91,2.22-3.54,2.49-.22.95-1.24,5.07-2.31,6.37-.5.61-.58,1.7-.67,2.75-.1,1.16-.2,2.37-.86,3.1-.21.23-.48.34-.8.3Z"/>
    <path class="cls-4" d="M16.34,104.96c-1.77.04-3.62.2-5.4.35l.03-.07c3.04-.63,8.91-1.38,11.05.6-1.65-1.08-3.78-.85-5.68-.88Z"/>
    <path class="cls-4" d="M17.14,112.09c-2-1.3-4.44-2.66-6.91-2.32,1.19-.55,2.6-.33,3.83.01,1.05.32,2.09.8,3.05,1.39-.06.06-.11.12-.16.18.07-.05.14-.1.21-.14,2.35,1.48,4.27,3.71,4.85,6.42-1.07-2.3-2.82-4.13-4.88-5.55Z"/>
    <path class="cls-4" d="M10.94,105.31c-.16.01-.31.03-.47.04.16-.03.32-.07.5-.11l-.03.07Z"/>
    <path class="cls-4" d="M10.94,125.95c-.12.76-.32,1.52-.37,2.29l-.22-.41c0-.66.13-1.32.23-1.95.22-1.08.52-2.15.96-3.17-.16,1.1-.39,2.17-.6,3.24Z"/>
    <path class="cls-4" d="M10.59,129.17c-.18-.43-.24-.89-.24-1.35l.22.41c-.02.31-.02.63.02.94Z"/>
    <path class="cls-2" d="M10.24,109.77h-.04c0-.09,0-.19.01-.29.05-1.42.11-2.86.73-4.17,1.78-.15,3.63-.31,5.4-.35,1.9.03,4.03-.2,5.68.88-2.14-1.98-8.01-1.22-11.05-.6.52-1.08,1.43-2.06,3.04-2.88l.04-.03c.72-.5,1.2-1.11,1.52-1.7,1.68-.77,3.26-1.72,4.73-2.85-1.62.7-3.15,1.55-4.59,2.57.51-1.08.53-2.07.53-2.34.6-2.03,1.93-2.51,3.35-3.02,1.27-.46,2.6-.93,3.2-2.57.53-.8,9.42-14.23,11.48-16.54,1.13-1.26,2.38-1.83,3.26-2.08,0,0,0,0,0,0,.12.09.22.25.28.35,1.72,3,1.34,16.42-1.07,20.57-1.5,2.58-2.48,5.5-3.04,7.76-1.52.79-2.49,2.53-2.56,4.22.54-1.52,1.32-2.94,2.51-4.02-.37,1.52-.53,2.71-.53,3.24-1.33,1.46-1.99,3.31-2.63,5.1-1.3,3.63-2.43,6.78-8.48,6.59h0c-.58-2.72-2.5-4.95-4.85-6.43,1.58-.96,3.93-.1,5.61.2-1.49-.8-4.31-1.66-5.67-.24-.96-.6-2-1.07-3.05-1.39-1.22-.34-2.64-.56-3.83-.01Z"/>
    <path class="cls-4" d="M10.17,105.23c.55-1.3,1.57-2.54,3.48-3.51,1.94-1.39,1.85-3.7,1.85-3.72v-.06s.01-.06.01-.06c.69-2.44,2.36-3.04,3.83-3.57,1.23-.44,2.29-.82,2.77-2.16l.04-.08c.38-.58,9.42-14.25,11.57-16.65,1.26-1.42,2.65-2.04,3.64-2.31v.65c.06,0,.12.03.18.07-.88.25-2.13.82-3.26,2.08-2.06,2.31-10.96,15.73-11.48,16.54-.61,1.64-1.93,2.11-3.2,2.57-1.42.51-2.76.99-3.35,3.02,0,.27-.02,1.26-.53,2.34-.26.18-.51.37-.76.56.21-.09.41-.18.62-.28-.32.6-.8,1.2-1.52,1.7l-.04.03c-1.61.82-2.52,1.8-3.04,2.88-.18.04-.34.07-.5.11l-.3-.13Z"/>
    <path class="cls-8" d="M9.7,127.62c-2.97-.13-4.6,3.11-5.09,5.63-.03.21-.07.42-.1.63-.35.86-.99,2.1-1.74,2.48-.25.13-.48.15-.73.07-.4-.13-.67-.35-.82-.67-.35-.74.03-1.74.03-1.75l.07-.19-.12-.17c-.73-.98.49-4.48,1.43-6.46l.04-.08v-.09s-.11-4.25,1.34-7.02c.85-1.37,1.91-2.09,2.85-2.72,1.15-.78,2.15-1.45,1.83-2.99,3.36,1.49,7.22,2.92,9.37,6.01l-.11.04-.04.19s-1.13,4.95-2.21,6.26c-.64.78-.74,1.99-.85,3.16-.09,1.04-.18,2.12-.67,2.66-.05.06-.09.07-.15.06-.79-.09-2.48-2.59-3.43-4.34l-.05-.09c.06-.77.25-1.53.37-2.29.2-1.07.44-2.14.6-3.24-.44,1.02-.74,2.09-.96,3.17-.1.63-.23,1.29-.23,1.95l-.15-.28-.06.21-.44-.13Z"/>
    <path class="cls-8" d="M5.06,132.52c.82-2.21,2.15-4.57,4.64-4.9l.44.13-.96,3.09-.17.48h.51s.13.02.26.2c.22.28.55,1.08.27,3.17-.21,1.6-.44,1.8-.48,1.83-.06,0-.29-.15-.44-.24-.33-.22-.74-.5-1.26-.5-.06,0-.12,0-.18-.03.14-1.17.11-2.35-.08-3.53-.21,1.14-.26,2.28-.16,3.43-.72-.4-1.59-1.63-2.04-2.47l-.36-.66Z"/>
    <path class="cls-4" d="M8.77,114.16c3.52.58,8.17,2.59,9.4,6.09h-.02s-.07.04-.07.04c-2.15-3.1-6.01-4.52-9.37-6.01,0-.02,0-.03-.01-.05l.08-.07Z"/>
    <path class="cls-4" d="M8.69,114.23s0,.03.01.05c-.15-.06-.29-.13-.44-.19.16.02.33.04.5.07l-.08.07Z"/>
    <path class="cls-4" d="M8.05,113.78c1.3-.93,1.35-2.5,1.42-4.32.05-1.33.1-2.82.71-4.23l.3.13c.16-.01.31-.03.47-.04-.62,1.31-.67,2.76-.73,4.17,0,.1,0,.19-.01.29-.06,1.7-.19,3.3-1.43,4.39-.17-.03-.34-.05-.5-.07l-.35.1-.08-.25.22-.16Z"/>
    <path class="cls-4" d="M7.88,135.78c.51,0,.92.28,1.26.5.15.1.37.24.44.24.03-.02.26-.23.48-1.83.28-2.1-.05-2.89-.27-3.17-.14-.18-.26-.2-.26-.2h-.51l.17-.48.96-3.09.06-.21.15.28c0,.46.06.92.24,1.35l-.2.26-.4,1.29c.1.06.21.15.32.27.57.65.73,1.93.48,3.8-.2,1.53-.46,2.2-.92,2.41-.42.19-.8-.07-1.15-.31-.28-.18-.56-.37-.84-.37-.1,0-.19-.01-.29-.03.04-.25.08-.5.11-.74.06.02.12.03.18.03Z"/>
    <path class="cls-4" d="M7.62,132.22c.19,1.18.22,2.35.08,3.53-.08-.02-.16-.05-.24-.1-.1-1.15-.05-2.29.16-3.43Z"/>
    <path class="cls-4" d="M7.7,135.75c-.03.25-.06.5-.11.74-.01,0-.02,0-.03-.01-.04-.28-.08-.56-.1-.83.08.05.16.08.24.1Z"/>
    <path class="cls-4" d="M7.6,136.49s0,.06-.01.1c0-.04-.01-.07-.01-.11,0,0,.02,0,.03.01Z"/>
    <path class="cls-4" d="M4.61,133.25c.5-2.52,2.13-5.76,5.09-5.63-2.5.32-3.82,2.69-4.64,4.9l-.06-.11-.26.84c-.05.16-.13.38-.23.63.03-.21.07-.42.1-.63Z"/>
    <path class="cls-4" d="M4.74,133.25l.26-.84.06.11c-.1.26-.19.53-.28.78-.12.37-.22.73-.35,1.1.02-.18.04-.35.07-.52.1-.25.18-.47.23-.63Z"/>
    <path class="cls-4" d="M1.26,134s-.38,1.02-.03,1.75c.15.32.42.54.82.67.24.08.48.06.73-.07.75-.38,1.39-1.62,1.74-2.48-.03.18-.06.35-.07.52.13-.37.23-.74.35-1.1.09-.26.18-.52.28-.78l.36.66c.45.83,1.32,2.07,2.04,2.47.02.28.06.55.1.83-.95-.23-1.87-1.46-2.39-2.26-.37.89-1.08,2.31-2.07,2.81-.42.22-.86.26-1.3.11-.6-.2-1.02-.56-1.26-1.07-.38-.81-.16-1.76-.04-2.15-.94-1.74,1.05-6.15,1.43-6.97-.01-.66,0-4.56,1.44-7.32.95-1.53,2.13-2.33,3.08-2.97,1.26-.85,1.81-1.28,1.46-2.46l.35-.1c.15.06.29.13.44.19.32,1.54-.69,2.21-1.83,2.99-.93.63-2,1.34-2.85,2.72-1.45,2.77-1.34,6.98-1.34,7.02v.09s-.03.08-.03.08c-.94,1.98-2.17,5.49-1.43,6.46l.12.17-.07.19Z"/>
  </g>
  <circle class="cls-5" cx="49.07" cy="45.54" r=".41"/>
</svg>